<?xml version="1.0" encoding="UTF-8"?> <svg xmlns="http://www.w3.org/2000/svg" xmlns:xlink="http://www.w3.org/1999/xlink" version="1.1" id="Calque_1" x="0px" y="0px" viewBox="0 0 50.62 52.39" style="enable-background:new 0 0 50.62 52.39;" xml:space="preserve"> <style type="text/css"> .st0{fill:#f4f4f5;} </style> <g> <g> <path class="st0" d="M23.7,13.84c5.14,0,10.27,0.01,15.41-0.01c0.6,0,0.79,0.1,0.62,0.74c-0.27,1.04-0.42,2.11-0.66,3.15 c-0.12,0.53,0.04,0.69,0.57,0.64c0.8-0.08,1.61-0.09,2.42,0.01c2.74,0.34,4.46,2.65,3.92,5.37c-0.32,1.58-0.72,3.14-1.17,4.69 c-0.62,2.14-2.19,3.3-4.42,3.34c-1.17,0.02-2.33,0-3.5-0.01c-0.41-0.01-0.63,0.09-0.72,0.57c-0.26,1.5-0.58,2.99-0.91,4.47 c-0.59,2.63-2.27,3.95-4.98,3.96c-4.31,0-8.61-0.03-12.92,0.01c-3.17,0.03-4.88-1.93-5.32-4.43c-0.88-5.03-1.96-10.02-2.96-15.03 c-0.46-2.31-0.91-4.61-1.4-6.91c-0.12-0.56,0.13-0.57,0.55-0.57C13.38,13.85,18.54,13.84,23.7,13.84z M23.71,18.32 c0-0.01,0-0.02,0-0.03c-3.34,0-6.68,0.02-10.03-0.01c-0.6-0.01-0.72,0.15-0.6,0.72c1.13,5.6,2.23,11.2,3.34,16.8 c0.08,0.38,0.26,0.5,0.64,0.5c4.42-0.02,8.84-0.02,13.26-0.01c0.42,0,0.57-0.15,0.65-0.57c1.1-5.6,2.22-11.2,3.37-16.79 c0.12-0.59-0.04-0.62-0.53-0.62C30.44,18.33,27.07,18.32,23.71,18.32z M39.84,22.82c0,0.01,0,0.01,0,0.02 c-0.45-0.02-0.89-0.04-1.34-0.07c-0.25-0.01-0.44,0.04-0.5,0.33c-0.24,1.25-0.49,2.5-0.74,3.75c-0.07,0.35,0.07,0.47,0.43,0.46 c0.83-0.02,1.66-0.01,2.49,0c0.24,0,0.44-0.01,0.51-0.3c0.29-1.26,0.59-2.52,0.9-3.78c0.07-0.3-0.04-0.41-0.33-0.4 C40.78,22.83,40.31,22.82,39.84,22.82z"></path> <path class="st0" d="M23.74,45.24c5.72,0,11.44,0.01,17.15-0.01c0.64,0,0.81,0.18,0.78,0.8c-0.05,1.03-0.03,2.06-0.02,3.09 c0.01,0.44-0.08,0.65-0.59,0.64c-11.52-0.02-23.05-0.02-34.57-0.01c-0.54,0-0.76-0.14-0.73-0.72c0.05-1.03,0.03-2.06,0.01-3.09 c-0.01-0.48,0.1-0.71,0.68-0.71C12.21,45.25,17.98,45.24,23.74,45.24C23.74,45.24,23.74,45.24,23.74,45.24z"></path> <path class="st0" d="M16.96,5.99c0-0.94,0.01-1.88-0.01-2.82c-0.01-0.4,0.13-0.55,0.55-0.54c1.14,0.03,2.28,0.03,3.42,0.01 c0.39-0.01,0.57,0.07,0.56,0.5c-0.02,1.88-0.01,3.76,0,5.64c0,0.37-0.09,0.59-0.53,0.58c-1.16-0.02-2.33-0.02-3.49,0 c-0.43,0.01-0.52-0.16-0.51-0.56C16.99,7.87,16.97,6.93,16.96,5.99C16.97,5.99,16.96,5.99,16.96,5.99z"></path> <path class="st0" d="M25.96,7.18c0-0.6,0.02-1.21-0.01-1.81c-0.01-0.36,0.12-0.47,0.46-0.47c1.19,0,2.37-0.02,3.56-0.04 c0.34-0.01,0.48,0.14,0.47,0.48c-0.01,1.16-0.01,2.33,0,3.49c0,0.39-0.14,0.56-0.56,0.54c-1.16-0.04-2.33-0.06-3.49-0.05 c-0.38,0-0.45-0.14-0.44-0.47C25.97,8.3,25.96,7.74,25.96,7.18z"></path> </g> </g> </svg> 