<?xml version="1.0" encoding="UTF-8"?> <svg xmlns="http://www.w3.org/2000/svg" xmlns:xlink="http://www.w3.org/1999/xlink" version="1.1" x="0px" y="0px" viewBox="0 0 200 100" style="enable-background:new 0 0 200 100;" xml:space="preserve"> <style type="text/css"> .st0{display:none;} .st1{display:inline;} .st2{fill:#f4f4f5;} .st3{display:inline;fill:#f4f4f5;} .st4{fill-rule:evenodd;clip-rule:evenodd;fill:#f4f4f5;} </style> <g id="Calque_1" class="st0"> <g id="Calque_2_00000179625274251385398600000015481261251989119147_" class="st1"> <path class="st2" d="M146.51,36.19h-0.84l-6.15,12l-6.27-12h-0.9l-1.74,13.19c-0.08,0.85-0.31,1.69-0.68,2.46h1.73 c-0.13-0.86-0.11-1.73,0.06-2.58l1.08-8.06l5.52,10.64h0.64l5.55-10.64l1,7.91c0.14,0.9,0.14,1.83,0,2.73h3.46 c-0.38-0.77-0.61-1.61-0.68-2.47L146.51,36.19z"></path> <path class="st2" d="M68.01,35.99c-5,0-9,3.53-9,8.1s3.94,8.1,9,8.1s9-3.54,9-8.1S73.04,35.99,68.01,35.99z M68.26,50.99 c-3.48,0-6.25-3-6.39-6.89s2.15-6.89,5.88-6.89c3.48,0,6.24,3,6.39,6.89C74.29,47.99,71.74,50.99,68.26,50.99z"></path> <path class="st2" d="M162.03,51.84h3.56c-0.74-0.73-1.32-1.6-1.7-2.56L158.3,36.2h-0.67l-5.69,13.44c-0.32,0.8-0.76,1.54-1.31,2.2 h1.61l2.18-5.23h5.45L162.03,51.84z M154.86,45.55l2.29-5.56l2.28,5.52L154.86,45.55z"></path> <path class="st2" d="M43.78,42.73c1.22-0.43,2.07-1.55,2.17-2.84c0.08-1.4-0.78-2.68-2.1-3.13c-1.19-0.38-2.43-0.56-3.68-0.51 h-4.66c0.33,0.61,0.48,1.31,0.44,2v11.48c0.07,0.73-0.08,1.47-0.44,2.11h5c1.46,0.03,2.91-0.22,4.27-0.73 c1.5-0.71,2.42-2.26,2.32-3.92C47.05,45.15,45.72,43.37,43.78,42.73z M38.58,37.28c0.25,0,0.62,0,1.11,0c0.5,0,1.01,0.05,1.5,0.14 c1.22,0.2,2.11,1.27,2.07,2.5c0.05,1.12-0.78,2.08-1.89,2.2c-0.25,0-1,0.1-1.22,0.1c-0.58,0-1.14,0-1.57,0V37.28z M41.71,50.69 c-0.43,0.07-0.87,0.12-1.31,0.13h-1.82v-7.58h1.4c0.49,0.01,0.98,0.05,1.47,0.14c1.84,0.32,3.1,2.03,2.88,3.88 C44.46,48.9,43.33,50.38,41.71,50.69z"></path> <path class="st2" d="M103.39,50.77v-7.5h5.55l0.37-1.06h-5.91v-4.9h4.29c0.94-0.04,1.87,0.17,2.7,0.62l-0.76-1.68h-9.29 c0.32,0.62,0.46,1.31,0.42,2v11.48c0.07,0.73-0.08,1.46-0.43,2.11h10.18l0.8-1.7c-0.93,0.46-1.96,0.68-3,0.63H103.39z"></path> <path class="st2" d="M90.15,36.55c-0.94-0.18-1.89-0.28-2.85-0.3h-6.32c0.31,0.62,0.45,1.31,0.41,2v11.48 c0.07,0.73-0.08,1.46-0.42,2.11h5.92c0.88-0.01,1.75-0.07,2.62-0.18c4.44-0.62,7-3.57,7-7.51S93.92,37.48,90.15,36.55z M88.51,50.69c-0.44,0.06-1.39,0.09-1.88,0.09c-1.28,0-2.09,0-2.59,0v-13.4c0.5,0,1.56,0,2.16,0c1.07,0.01,2.13,0.16,3.16,0.45 c2.67,0.93,4.41,3.5,4.28,6.33C93.64,47.66,92.08,50.18,88.51,50.69z"></path> <path class="st2" d="M55.06,36.25h-3.44c0.31,0.62,0.45,1.31,0.41,2v11.48c0.07,0.73-0.08,1.46-0.42,2.11h3.44 c-0.31-0.62-0.45-1.31-0.41-2V38.36C54.57,37.63,54.72,36.9,55.06,36.25z"></path> <path class="st2" d="M121.06,44.57c2.06-0.21,4.59-1.34,4.59-4s-1.67-3.58-3.55-4.03c-1.37-0.25-2.76-0.34-4.15-0.29h-3.23 c0.31,0.62,0.45,1.31,0.41,2v11.48c0.07,0.73-0.08,1.46-0.43,2.11h3.52c-0.33-0.65-0.49-1.37-0.45-2.1V37.3 c0.86-0.04,1.71,0.01,2.56,0.15c1.58,0.2,2.73,1.59,2.62,3.18c0,1.76-1.1,3.79-4.27,3.1l-0.36,0.26c1.81,2.97,4.08,5.63,6.74,7.88 h4C126.03,49.87,123.33,47.4,121.06,44.57z"></path> <path class="st2" d="M36.33,60.48h1.74v0.51h-2.56v-4.18h0.83L36.33,60.48z"></path> <path class="st2" d="M40,60.99h-0.72l1.9-4.22h0.48l1.72,4.22h-0.87l-0.43-1h-1.57L40,60.99z M41.32,57.99l-0.66,1.5h1.26 L41.32,57.99z"></path> <path class="st2" d="M45.08,56.82h1.35c0.95,0,1.53,0.42,1.53,1c-0.01,0.45-0.32,0.84-0.76,0.95c0.59,0.01,1.09,0.46,1.16,1.05 c0,0.72-0.82,1.24-1.68,1.24h-1.6V56.82z M47.51,59.82c0-0.4-0.32-0.69-1-0.69h-0.65v1.41h0.65 C47.13,60.54,47.51,60.24,47.51,59.82z M46.27,58.64c0.53,0,0.88-0.27,0.88-0.71s-0.28-0.62-0.88-0.62h-0.39v1.33H46.27z"></path> <path class="st2" d="M54.75,58.93c-0.01,1.22-1.01,2.2-2.23,2.19c-0.05,0-0.09,0-0.14-0.01c-1.19,0.11-2.25-0.77-2.36-1.96 c-0.01-0.07-0.01-0.15-0.01-0.22c0.02-1.23,1.03-2.21,2.26-2.19c0.04,0,0.08,0,0.12,0c1.18-0.12,2.23,0.75,2.35,1.93 C54.75,58.76,54.75,58.84,54.75,58.93z M50.88,58.93c-0.1,0.83,0.5,1.58,1.33,1.67c0.83,0.1,1.58-0.5,1.67-1.33 c0.01-0.12,0.01-0.23,0-0.35c0.08-0.83-0.53-1.57-1.36-1.64c-0.05,0-0.1-0.01-0.15-0.01c-0.82,0-1.49,0.66-1.5,1.48 C50.87,58.82,50.88,58.87,50.88,58.93z"></path> <path class="st2" d="M59.28,61.1l-1.31-1.95h-0.46v1.84H56.7v-4.2H58c1.13,0,1.68,0.55,1.68,1.09c-0.05,0.51-0.41,0.94-0.9,1.07 l1.43,2L59.28,61.1z M57.91,58.65c0.65,0,1-0.35,1-0.67s-0.28-0.66-0.94-0.66h-0.46v1.33H57.91z"></path> <path class="st2" d="M61.99,61.04h-0.72l1.9-4.22h0.48l1.72,4.22h-0.86l-0.42-1h-1.64L61.99,61.04z M63.31,57.99l-0.66,1.52h1.26 L63.31,57.99z"></path> <path class="st2" d="M66.02,56.84h3.79v0.54h-1.49v3.67h-0.81v-3.67h-1.5L66.02,56.84z"></path> <path class="st2" d="M75.59,58.99c-0.01,1.22-1.01,2.2-2.23,2.19c-0.05,0-0.09,0-0.14-0.01c-1.19,0.11-2.24-0.76-2.35-1.95 c-0.01-0.08-0.01-0.15-0.01-0.23c0.01-1.22,1-2.2,2.22-2.2c0.05,0,0.09,0,0.14,0.01c1.18-0.12,2.24,0.74,2.36,1.92 C75.59,58.81,75.59,58.9,75.59,58.99z M71.72,58.99c-0.1,0.83,0.5,1.58,1.33,1.67c0.83,0.1,1.58-0.5,1.67-1.33 c0.01-0.12,0.01-0.23,0-0.35c0.1-0.83-0.5-1.58-1.33-1.67c-0.83-0.1-1.58,0.5-1.67,1.33C71.71,58.76,71.71,58.88,71.72,58.99z"></path> <path class="st2" d="M77.51,61.05v-4.2h0.8v4.2L77.51,61.05z"></path> <path class="st2" d="M83.04,61.12l-1.31-2h-0.48v1.89h-0.8v-4.2h1.31c1.12,0,1.67,0.55,1.67,1.09c-0.04,0.52-0.41,0.96-0.92,1.09 l1.43,2.05L83.04,61.12z M81.67,58.67c0.66,0,1-0.35,1-0.67s-0.28-0.66-0.94-0.66H81.3v1.33H81.67z"></path> <path class="st2" d="M88.51,61.06h-2.87v-4.21h2.74v0.54h-1.94v1.24h1.42v0.53h-1.42v1.36h2L88.51,61.06z"></path> <path class="st2" d="M93.13,56.86h1.45c1.51,0,2.54,0.79,2.54,2.09c-0.13,1.28-1.26,2.21-2.54,2.11h-1.45V56.86z M94.6,60.53 c0.87,0.01,1.6-0.67,1.65-1.54c0.03-0.83-0.63-1.53-1.46-1.56c-0.07,0-0.13,0-0.2,0.01h-0.65v3.13L94.6,60.53z"></path> <path class="st2" d="M101.87,61.07h-2.82v-4.2h2.74v0.53h-1.93v1.24h1.42v0.53h-1.43v1.36h2L101.87,61.07z"></path> <path class="st2" d="M106.27,61.14l-1.3-2h-0.46v1.89h-0.8v-4.2h1.3c1.13,0,1.67,0.56,1.67,1.08c-0.05,0.52-0.42,0.95-0.92,1.08 l1.42,2L106.27,61.14z M104.91,58.69c0.65,0,0.94-0.35,0.94-0.67s-0.27-0.66-0.93-0.66h-0.41v1.33H104.91z"></path> <path class="st2" d="M113.51,61.08h-0.8v-2.84l-1.34,2.88h-0.5l-1.36-2.82l-0.11,2.78h-0.67l0.19-4.21h0.75l1.47,3.27l1.51-3.27 h0.73L113.51,61.08z"></path> <path class="st2" d="M115.82,61.08h-0.72l1.9-4.21h0.51l1.72,4.21h-0.84l-0.42-1h-1.69L115.82,61.08z M117.14,57.99l-0.63,1.56 h1.26L117.14,57.99z"></path> <path class="st2" d="M119.86,56.88h3.78v0.54h-1.48v3.67h-0.81v-3.66h-1.5L119.86,56.88z"></path> <path class="st2" d="M129.43,58.99c-0.01,1.22-1.01,2.2-2.23,2.19c-0.05,0-0.09,0-0.14-0.01c-1.19,0.12-2.24-0.75-2.36-1.94 c-0.01-0.08-0.01-0.16-0.01-0.24c0.01-1.23,1.02-2.21,2.24-2.19c0.04,0,0.08,0,0.13,0c1.18-0.12,2.24,0.74,2.36,1.92 C129.43,58.81,129.43,58.9,129.43,58.99z M125.51,58.99c-0.14,0.83,0.43,1.61,1.25,1.75c0.83,0.14,1.61-0.43,1.75-1.25 c0.03-0.16,0.03-0.33,0-0.49c0.07-0.84-0.55-1.58-1.39-1.65c-0.04,0-0.08-0.01-0.12-0.01c-0.83,0.01-1.5,0.69-1.5,1.52 C125.5,58.9,125.51,58.94,125.51,58.99z"></path> <path class="st2" d="M132.16,60.56h1.74v0.54h-2.54v-4.21h0.81L132.16,60.56z"></path> <path class="st2" d="M139.85,58.99c-0.01,1.22-1.01,2.2-2.23,2.19c-0.04,0-0.08,0-0.11,0c-1.19,0.13-2.26-0.74-2.39-1.93 c-0.01-0.09-0.01-0.17-0.01-0.26c0.02-1.23,1.03-2.21,2.25-2.19c0.05,0,0.1,0,0.15,0.01c1.19-0.1,2.23,0.78,2.33,1.97 C139.85,58.85,139.85,58.92,139.85,58.99z M135.97,58.99c-0.1,0.83,0.5,1.58,1.33,1.67s1.58-0.5,1.67-1.33 c0.01-0.12,0.01-0.23,0-0.35c0.1-0.83-0.5-1.58-1.33-1.67s-1.58,0.5-1.67,1.33C135.96,58.76,135.96,58.88,135.97,58.99z"></path> <path class="st2" d="M144.05,61.19c-1.21,0.14-2.3-0.72-2.44-1.93c-0.14-1.21,0.72-2.3,1.93-2.44c0.17-0.02,0.34-0.02,0.51,0 c0.53-0.02,1.06,0.08,1.55,0.28l-0.24,0.52c-0.41-0.16-0.84-0.25-1.28-0.24c-0.9-0.05-1.67,0.63-1.72,1.53 c-0.05,0.9,0.63,1.67,1.53,1.72c0.08,0,0.17,0,0.25,0c0.28,0.01,0.57-0.03,0.84-0.11v-1.23h0.79v1.57 C145.23,61.09,144.64,61.21,144.05,61.19z"></path> <path class="st2" d="M147.65,61.11V56.9h0.8v4.2L147.65,61.11z"></path> <path class="st2" d="M155.06,61.4l-0.27,0.59l-2.74-0.87c-1-0.21-1.7-1.11-1.67-2.13c0.01-1.23,1.02-2.21,2.24-2.19 c0.04,0,0.08,0,0.13,0c1.19-0.12,2.24,0.75,2.36,1.94c0.01,0.08,0.01,0.17,0.01,0.25c0,0.96-0.67,1.79-1.61,2L155.06,61.4z M151.25,58.99c-0.09,0.82,0.51,1.56,1.33,1.65c0.06,0.01,0.11,0.01,0.17,0.01c0.84,0,1.52-0.68,1.52-1.52 c0-0.05,0-0.09-0.01-0.14c0.1-0.83-0.5-1.58-1.33-1.67s-1.58,0.5-1.67,1.33C151.25,58.76,151.25,58.88,151.25,58.99L151.25,58.99z "></path> <path class="st2" d="M160.69,59.72c0,0.67-0.54,1.48-1.89,1.48c-1.35,0-1.88-0.59-1.88-1.46v-2.83h0.81v2.75c0,0.66,0.35,1,1.14,1 c0.55,0.06,1.04-0.35,1.1-0.89c0-0.03,0.01-0.07,0.01-0.11v-2.75h0.73L160.69,59.72z"></path> <path class="st2" d="M165.59,61.12h-2.82v-4.2h2.74v0.53h-1.94v1.24h1.42v0.53h-1.42v1.36h2L165.59,61.12z"></path> </g> </g> <g id="Calque_2" class="st0"> <g class="st1"> <path class="st2" d="M127.03,22.51c-7.07-7.07-16.48-10.97-26.48-10.97c-20.65,0-37.44,16.8-37.44,37.44 c0,10,3.89,19.4,10.97,26.48c7.07,7.07,16.47,10.97,26.48,10.97c10,0,19.4-3.89,26.48-10.97c7.07-7.07,10.97-16.47,10.97-26.48 C137.99,38.99,134.1,29.59,127.03,22.51z M100.55,85.14c-9.66,0-18.73-3.76-25.56-10.59c-6.83-6.83-10.59-15.9-10.59-25.56 c0-9.65,3.76-18.73,10.59-25.56c6.83-6.83,15.9-10.59,25.56-10.59c9.66,0,18.73,3.76,25.56,10.59 c6.83,6.83,10.59,15.9,10.59,25.56C136.7,68.92,120.48,85.14,100.55,85.14z"></path> <path class="st2" d="M100.55,69.7c11.44,0,20.71-9.27,20.71-20.71h-20.71V69.7z"></path> <path class="st2" d="M79.84,48.99h20.71V28.28C89.11,28.28,79.84,37.55,79.84,48.99z"></path> <polygon class="st2" points="100.73,22.76 100.71,22.72 100.7,22.76 "></polygon> <path class="st2" d="M100.55,14.33c-19.14,0-34.66,15.52-34.66,34.66c0,19.14,15.52,34.66,34.66,34.66 c19.14,0,34.66-15.52,34.66-34.66C135.21,29.85,119.69,14.33,100.55,14.33z M95.49,16.23h2.74l2.48,6.5l2.48-6.5h2.74v9.12h-1.83 v-6.37l-2.4,6.37h-1.99l-2.4-6.37v6.37h-1.83V16.23z M72.48,31.23l4.45-5.3c0.92-1.1,2.21-1.97,3.43-0.95 c0.38,0.32,0.54,0.42,1,1.26c0.11,0.3,0.19,0.83-0.01,1.36c1.07-0.66,2.2-0.45,2.93,0.27c1.13,1.1,0.96,2.36-0.11,3.64l-4.69,5.59 L72.48,31.23z M100.55,71.13c-12.23,0-22.14-9.91-22.14-22.14c0-12.23,9.91-22.14,22.14-22.14c12.23,0,22.14,9.91,22.14,22.14 C122.69,61.22,112.78,71.13,100.55,71.13z M121.18,37.29l-1.66-2.06l3.3-4.83l-0.02-0.02l-5.41,2.22l-1.67-2.05l5.72-7.36 l1.41,1.74l-3.58,4.69l5.48-2.35l1.51,1.87l-3.44,4.87l5.33-2.53l1.41,1.74L121.18,37.29z"></path> <path class="st2" d="M82.61,30.96c0.37-0.44,0.32-1.13-0.22-1.58c-0.48-0.4-1.18-0.29-1.5,0.09l-2.81,3.35l1.75,1.47L82.61,30.96z "></path> <path class="st2" d="M79.36,27.26c-0.45-0.38-1.15-0.39-1.46-0.02l-2.67,3.19l1.65,1.39l2.64-3.15 C79.86,28.27,79.86,27.68,79.36,27.26z"></path> </g> </g> <g id="Calque_3" class="st0"> <g class="st1"> <path class="st2" d="M78.24,50.56l1.28-2.11c0.34-0.55,0.26-1.01-0.18-1.01h-6.36c-0.44,0-1.08,0.46-1.42,1.01l-1.28,2.11 c-0.34,0.55-0.26,1.01,0.18,1.01h6.36C77.26,51.57,77.9,51.11,78.24,50.56z"></path> <path class="st2" d="M99.65,44.2c1.42,0.13,6.16-0.43,7.47-2.6c1.37-2.4-1.41-4.24-3.74-4.03c-1.1,0.07-2.6,0.48-3.63,1.86 c-0.98,1.41-1.27,3.2-1.28,3.71C98.46,43.87,99.2,44.15,99.65,44.2z"></path> <path class="st2" d="M131.17,58.18c-0.26,0-0.92-0.06-1.05-0.13c-0.4-0.33-0.47-0.53-0.47-1.38v-9.69 c0.01-2.28-0.74-4.25-3.24-4.31c-2.82-0.07-5.04,1.31-7.23,2.23c-0.16,0.06-0.46,0.23-0.46-0.13v-1.85 c0.03-0.24-0.04-1.04-0.77-0.71c-2.65,1.39-4.44,1.61-7.54,2.08c-0.2,0.03-0.33,0.13-0.4,0.4l-0.53,1.12 c-0.07,0.33,0.07,0.4,0.33,0.4c0.57,0,1.32-0.1,1.32,0.73v10.1c-0.06,0.88-0.27,1.04-0.58,1.05c-0.09,0-0.16,0.13-0.18,0.2 l-0.67,1.72c-0.03,0.17,0.13,0.4,0.33,0.4h9.4c0.26,0.01,0.53-0.13,0.64-0.36l0.48-1.22c0.33-0.8-0.14-0.73-0.8-0.73 c-1-0.07-0.88-0.55-0.91-0.92v-7.77c0-2.55,3.09-2.4,3.09-0.51v9.22c-0.03,0.75,0.57,2.23,2.55,2.3h5.69c0.2,0,0.47-0.07,0.6-0.33 l0.6-1.52C131.44,58.38,131.44,58.18,131.17,58.18z"></path> <path class="st2" d="M157.22,58.15c-1.18-0.07-2.22-0.13-3.36-0.92l-5.14-5.26c-0.7-0.67-0.88-1.07-0.1-2.01l3.74-4.2 c0.13-0.07,0.2-0.18,0.53-0.2h0.36c0.44,0,0.51-0.14,0.6-0.26l0.92-1.25c0.13-0.17,0.06-0.33-0.07-0.33h-7.28 c-0.53,0-1.38,0.09-1.74,0.53l-3.34,4.24c-0.11,0.16-0.5,0.51-0.57-0.01V38.8c0-0.6-0.31-0.92-0.85-0.84 c-0.13,0.01-0.21,0.06-0.31,0.03c-1.66,0.63-4.38,1.41-7.07,1.85c-0.31,0.06-0.6,0.09-0.75,0.36l-0.83,1.38 c-0.16,0.28-0.09,0.58,0.31,0.53l1.34-0.18c0.34-0.04,0.46,0.14,0.46,0.63v14.23c-0.01,1.08-0.28,1.32-1.01,1.37 c-0.44,0.03-0.53,0.1-0.65,0.4l-0.58,1.55c-0.07,0.2,0.14,0.3,0.47,0.3h10.53c0.26,0,0.44-0.1,0.58-0.4l0.48-1.25 c0.13-0.33,0.28-0.63-0.27-0.65c-1.45-0.07-1.86-0.33-1.86-1.32v-2.21c0-0.26,0.26-0.4,0.57-0.1c1.81,1.71,2.97,3.63,4.82,5.15 c0.92,0.6,2.11,0.8,2.76,0.8h5.09c0.33,0,0.91-0.13,1.04-0.33l1.32-1.52C157.46,58.42,157.53,58.17,157.22,58.15z"></path> <path class="st2" d="M108.83,58.24c-0.78-0.09-1.07-0.3-1.24-1.18V44.52c0.07-0.73-0.33-0.98-0.65-0.85 c-2.21,1.28-4.98,1.98-7.77,2.19c0,0-0.26,0-0.46,0.4l-0.73,1.38c-0.04,0.09-0.06,0.33,0.2,0.4c1.45-0.14,1.65-0.2,1.65,1.05v7.5 c0,1.32-0.06,1.45-1.05,1.72c-0.33,0.06-0.37,0.23-0.46,0.4l-0.48,1.25c-0.09,0.28,0.01,0.46,0.27,0.47h9.8 c0.47,0,0.6-0.07,0.8-0.47l0.51-1.32C109.37,58.25,108.83,58.24,108.83,58.24z"></path> <path class="st2" d="M64.64,40.35c-1.78-1.64-3.44-1.78-6.22-1.78H46.58c-0.5,0-1.05,0.13-1.25,0.47l-0.85,1.58 c-0.13,0.65,0.65,0.73,0.65,0.73h1.21c0.33,0,0.4,0.26,0.4,0.53v14.66c0,0.65-0.74,1.05-1.34,1.18c-0.27,0.07-0.65,0.14-0.85,0.47 l-0.85,1.65c-0.13,0.33,0.13,0.6,0.4,0.6c4.65,0,8.69,0.01,13.36-0.01c2.13,0.03,4.71,0.14,7.1-1.72c1.71-1.12,3.76-5.68,4.5-7.56 c0.37-0.98,0.47-2.28,0-3.26C67.75,44.95,65.87,41.68,64.64,40.35z M61.41,50.31l-4.03,6.8c-0.48,0.67-0.71,0.54-1.32,0.58h-1.61 V41.95c0-0.4,0.07-0.6,0.46-0.65h1.15c0.41,0,1.01-0.09,1.38,0.57l3.97,6.93C61.73,49.52,61.63,49.82,61.41,50.31z"></path> <path class="st2" d="M96.42,51.78l-2.08,0.73c-0.4,0.2-0.47,0.4-0.6,0.73c-0.53,2.11-0.47,4.52-2.82,4.55h-1.44 c-0.73-0.03-0.98-0.53-0.98-1.12V42.74c0.06-1.2,0.53-1.2,1.12-1.2h0.1c0.92,0,1.05-0.4,1.05-0.4l1.05-1.92 c0.1-0.2-0.09-0.5-0.6-0.5v-0.01H79.48c-0.33,0-0.51,0.06-0.73,0.44l-0.92,1.72c-0.16,0.37,0.2,0.6,0.85,0.6c0.34,0,0.67,0,1.01,0 c0.87,0,1.07,0.53,1.07,1.38v13c0.01,2.02-0.81,2.03-2.13,2.11c-0.6,0-0.8,0.4-0.8,0.4l-0.65,1.45c-0.14,0.4,0,0.6,0.65,0.6H95.7 c0.8,0.07,1.39-0.53,1.32-1.18v-7C96.95,51.78,96.69,51.78,96.42,51.78z"></path> </g> </g> <g id="Calque_4" class="st0"> <path class="st3" d="M41.22,56.31v-2.34h-0.21c0,0.27-0.14,0.41-0.76,0.41h-3.71V51.5h5.77c0.55,0,0.76,0.21,0.76,0.55h0.27v-2.41 h-0.27c0,0.27-0.14,0.41-0.76,0.41h-8.04v0.27c0.34,0,0.48,0.21,0.48,0.48v8.8c0,0.27-0.07,0.48-0.48,0.48v0.27h2.75v-0.27 c-0.34,0-0.48-0.21-0.48-0.48v-3.78h3.71c0.55,0,0.76,0.21,0.76,0.55h0.21V56.31z M59.44,54.46v-3.02h3.71 c1.72,0,2.2,0.41,2.2,1.37c0,1.03-0.55,1.65-2.13,1.65H59.44z M66.87,59.54l-2.34-3.71c1.86-0.27,2.68-1.31,2.68-2.89 c0-1.86-1.03-2.82-3.51-2.82h-6.39v0.21c0.34,0,0.48,0.21,0.48,0.48v8.8c0,0.27-0.07,0.48-0.48,0.48v0.27h2.61v-0.27 c-0.34,0-0.48-0.21-0.48-0.48v-3.64h3.09l2.27,3.71c0.07,0.07,0.07,0.14,0.07,0.21c0,0.14-0.07,0.21-0.34,0.21v0.27h3.09v-0.27 C67.28,60.03,67.14,59.96,66.87,59.54L66.87,59.54z M117.26,50.33v-0.27h-2.41v0.27c0.34,0,0.48,0.21,0.48,0.48v6.53l-5.91-6.53 c-0.07-0.07-0.14-0.21-0.14-0.27c0-0.14,0.07-0.21,0.34-0.21v-0.27h-3.23v0.27c0.34,0,0.48,0.21,0.48,0.48v8.8 c0,0.27-0.07,0.48-0.48,0.48v0.27h2.41v-0.27c-0.34,0-0.48-0.21-0.48-0.48v-7.42l6.67,7.36c0.07,0.07,0.21,0.21,0.21,0.34 s-0.07,0.14-0.34,0.14v0.27h2.41v-0.27c-0.34,0-0.48-0.21-0.48-0.48v-8.8C116.78,50.47,116.84,50.33,117.26,50.33L117.26,50.33z M166.55,60.71h0.27v-2.54h-0.27c0,0.48-0.27,0.69-0.76,0.69h-6.05v-3.09h3.64c0.55,0,0.76,0.14,0.76,0.55h0.27v-2.54h-0.27 c0,0.41-0.34,0.55-0.76,0.55h-3.57v-2.89h5.64c0.55,0,0.76,0.21,0.76,0.55h0.27v-2.34h-0.27c0,0.27-0.14,0.41-0.76,0.41h-7.91v0.27 c0.34,0,0.48,0.21,0.48,0.48v8.8c0,0.27-0.07,0.48-0.48,0.48v0.27H166C166.34,60.3,166.55,60.44,166.55,60.71L166.55,60.71z M109.49,83.33V80.1h-0.34c0,0.55-0.34,0.82-0.96,0.82h-8.94V69.44c0-0.48,0.14-0.76,0.62-0.76v-0.34h-3.51v0.34 c0.48,0,0.62,0.27,0.62,0.69v12.44c0,0.41-0.14,0.69-0.62,0.69v0.34h11.82c0.69,0,0.96,0.14,0.96,0.62L109.49,83.33L109.49,83.33z M122.48,81.06c-3.57,0-5.71-2.06-5.71-5.57c0-3.44,2.13-5.57,5.71-5.57c3.57,0,5.71,2.06,5.71,5.57 C128.19,79,126.06,81.06,122.48,81.06z M130.52,75.56c0-4.74-3.44-7.42-8.04-7.42c-4.61,0-8.04,2.68-8.04,7.42 c0,4.74,3.44,7.42,8.04,7.42C127.09,82.92,130.52,80.31,130.52,75.56z M147.09,74.67h-5.64v-4.4h5.64c2.2,0,2.96,0.69,2.96,2.06 C150.05,73.71,149.22,74.67,147.09,74.67z M147.09,68.34h-8.59v0.34c0.48,0,0.62,0.27,0.62,0.69v12.44c0,0.41-0.14,0.69-0.62,0.69 v0.34H142v-0.34c-0.48,0-0.62-0.27-0.62-0.69v-5.22h5.77c3.44,0,4.81-1.58,4.81-4.26C152.04,69.79,150.6,68.34,147.09,68.34 L147.09,68.34z M84.6,56.18l1.92-4.47l2.13,4.47H84.6L84.6,56.18z M91.82,59.06l-3.64-7.7c-0.21-0.48-0.34-0.69-0.34-0.82 s0.07-0.21,0.27-0.21v-0.27h-3.09v0.27c0.21,0,0.34,0.14,0.34,0.21c0,0.14-0.14,0.34-0.27,0.76l-3.44,7.84 c-0.41,0.82-0.48,0.89-0.76,0.89v0.27h2.54v-0.27c-0.21,0-0.34-0.07-0.34-0.21c0-0.14,0.14-0.48,0.27-0.69l0.69-1.51h5.22 l0.69,1.51c0.21,0.48,0.27,0.55,0.27,0.69c0,0.21-0.07,0.27-0.41,0.27v0.27h2.89v-0.27C92.3,60.03,92.23,59.96,91.82,59.06 L91.82,59.06z M137.61,60.44c3.09,0,4.33-1.65,4.67-1.65c0.07,0,0.14,0,0.14,0c0.07,0,0.07,0.07,0.14,0.14l0.27-0.21l-1.44-1.92 L141.11,57c0.07,0.07,0.07,0.21,0.07,0.27c0,0.62-1.51,1.72-3.44,1.72c-2.47,0-4.47-1.37-4.47-4.06c0-1.92,1.44-3.71,4.26-3.71 c1.99,0,3.51,0.82,3.51,1.31c0,0.14-0.07,0.21-0.07,0.27l0.27,0.14l1.17-2.13l-0.27-0.21c-0.07,0.07-0.07,0.21-0.27,0.21 c-0.21,0-1.99-0.96-4.33-0.96c-3.78,0-6.12,2.34-6.12,5.16C131.49,58.31,133.96,60.51,137.61,60.44z M57.24,82.99 c3.92,0,7.15-2.2,7.15-2.2v-5.29h-5.36c-0.62,0-0.96-0.27-0.96-0.82h-0.34v3.23h0.34c0-0.41,0.27-0.62,0.96-0.62h3.16v2.34 c0,0-1.86,1.51-5.43,1.51c-3.02,0-5.43-2.06-5.43-5.57c0-3.23,1.99-5.5,5.64-5.5c3.02,0,5.29,1.37,5.29,1.99 c0,0.14,0,0.27-0.14,0.34l0.34,0.21l1.86-2.89l-0.34-0.21c-0.14,0.14-0.21,0.34-0.48,0.34c-0.62,0-2.54-1.65-6.6-1.65 c-4.67,0-7.91,3.23-7.91,7.49C49.06,79.89,52.43,82.99,57.24,82.99L57.24,82.99z M80.13,70.54l3.09,6.6h-5.91L80.13,70.54z M75.6,82.37c-0.34,0-0.48-0.14-0.48-0.27c0-0.21,0.21-0.69,0.34-1.03l0.96-2.2h7.56l1.03,2.2c0.27,0.69,0.34,0.76,0.34,0.96 c0,0.27-0.14,0.41-0.55,0.41v0.34h3.78v-0.34c-0.62,0-0.62-0.07-1.24-1.37L82.26,70.2c-0.27-0.62-0.48-0.96-0.48-1.17 c0-0.21,0.14-0.34,0.41-0.34v-0.34h-3.99v0.34c0.27,0,0.48,0.14,0.48,0.34s-0.14,0.41-0.41,1.1L73.47,81.2 c-0.55,1.17-0.62,1.31-1.1,1.31v0.34h3.3v-0.48H75.6z M96.5,37.55c0,0,1.79,0,1.86,0c0.07,0,0.14-0.07,0.07-0.14l-1.24-1.37 l-2.75-3.02c-0.07-0.07-0.07-0.14-0.07-0.14l0.14-1.31c0,0,3.44,0.69,3.51,0.69c0.07,0,0.14,0.07,0.21,0.14 c0.07,0.07,1.79,1.24,1.86,1.31c0,0,0.14,0.14,0.21,0.07c0,0,0.89,0.07,0.89,0c0,0,0.07,0,0-0.14c-0.62-0.69-1.58-2.06-2.34-2.27 c-0.62-0.14-2.96-0.69-3.23-0.82c-0.07,0-0.14-0.07-0.14-0.21c-0.07-0.34-0.14-2.82-0.14-3.02c0-0.07,0.07-0.14,0.14-0.07 c0.41,0.14,5.98,1.79,5.98,1.79c0.27,0.07,0.48,0.14,0.69,0.34c0,0,2.47,1.86,2.54,1.92c0.07,0.07,0.07,0.14,0,0.21 c-0.21,0.14-0.34,0.34-1.58,0.76c-0.07,0-0.14,0-0.14-0.07c-0.21-0.34-0.34-0.69-0.48-1.03c0-0.07-0.07-0.07-0.14-0.07 c-0.07,0-1.37,0-1.44,0c-0.07,0-0.07,0,0,0.07c0.14,0.21,1.37,1.79,1.65,2.13c0.07,0.07,0.14,0.07,0.34,0.07 c0.21-0.07,2.68-0.96,2.68-0.96c0.14-0.07,0.21-0.14,0.27-0.21c0.07-0.14,0.14-0.69,0.14-0.82c0-0.07,0-0.14-0.07-0.21 c-0.07-0.21-1.51-1.65-1.51-1.65s1.51-0.14,3.51,0.27c0.14,0,0.14,0.07,0.21,0.14c0.07,0.14,1.17,2.34,1.24,2.47 c0.07,0.14,0.07,0.14,0.07,0.21c-0.07,0.27-0.27,1.24-0.21,1.31c0.07,0.14,1.37,0.82,1.65,0.96c0.07,0,0.07,0,0.07-0.07 c0-0.07-0.55-2.47-0.55-2.47s-0.82-2.47-0.89-2.82c-0.07-0.27-0.14-0.27-0.27-0.34c-0.21-0.14-3.16-1.37-3.3-1.44 c0.34-1.24,1.44-2.89,1.99-3.57c0.96-1.17,1.31-1.92,1.86-2.47c0.27-0.27,0.27-0.21,0.41-0.07c1.03,1.1,2.2,0.62,3.37,1.92 c0.21,0.27,0.69-0.07,0.69-0.07l-0.14-0.55l0.55,0.41c0,0,0.55-0.34,0.69-0.55c0.14-0.14-0.07-0.34-0.14-0.48 c-0.41-0.69-1.92-2.82-5.36-6.26c-0.07-0.07-0.14-0.07-0.14,0.07c0,0.14,0,0.69,0,0.96c-0.89,0.21-3.51,1.1-6.46,3.16 c-0.48-0.27-0.82-0.69-0.69-0.89c0.07-0.07,0.21-0.34,0.27-0.48c0.27-0.55,0.07-1.37,0.07-1.37c0.76,0.27,1.24-0.27,1.37-1.03 c0-0.07,0-0.07,0.07-0.07c0.07,0,0.69-0.07,0.69-0.07c0.07,0,0.07,0,0-0.07l-0.55-0.34c0,0-0.07-1.44-1.31-1.37 c-1.17,0.07-1.17,1.17-1.17,1.31v0.48c0,0-2.2-0.48-3.92-0.48c-1.79,0-2.41,0.76-2.41,1.72c0,1.44,2.06,2.06,3.37,2.54 c0.69,0.27,0.48,0.82,0.14,1.17c-1.1-0.07-3.51-0.48-5.57-0.55c-2.75-0.07-4.12,1.44-4.54,2.54c-4.19-1.58-5.91,0.55-6.26,1.17 c-0.48,0.82,0.48,0.96,0.62,1.58c0.07,0.34-0.27,0.89-1.31,1.51c-0.41,0.07-0.41,0.14-0.34,0.14c0.48,0.27,1.79,0.69,2.68-0.14 c0.89-0.89,0.07-2.54,0.96-3.02c0.62-0.34,0.96,0.41,3.16-0.69c-0.21,1.79,0.89,2.96,1.79,3.78l1.86,1.86 c0.14,0.14,0.27,0.27,0.27,0.48c0.07,0.55,0.34,3.02,0.34,3.16c0,0.21,0.14,0.27,0.27,0.41c0.48,0.48,2.47,2.54,2.75,3.09 c0.07,0.07,0.07,0.07,0.14,0.07c0.07,0,0.34,0.07,0.34,0.07h0.07c0,0,0,0,0,0.07C96.5,36.86,96.43,37.48,96.5,37.55 C96.43,37.55,96.43,37.55,96.5,37.55"></path> </g> <g id="Calque_5"> <g> <path id="Fill-1" class="st4" d="M135.12,25.71H115.4c-1.82,0-3.31,1.47-3.31,3.29v3.97c0,1.81,1.48,3.28,3.31,3.28h19.72 c1.83,0,3.31-1.47,3.31-3.28v-3.97C138.42,27.18,136.94,25.71,135.12,25.71"></path> <path id="Fill-3" class="st4" d="M135.12,46.78H115.4c-1.82,0-3.31,1.47-3.31,3.29v3.97c0,1.81,1.48,3.28,3.31,3.28h19.72 c1.83,0,3.31-1.47,3.31-3.28v-3.97C138.42,48.25,136.94,46.78,135.12,46.78"></path> <path id="Fill-5" class="st4" d="M108.79,36.24H91.72c-1.83,0-3.31-1.47-3.31-3.29v-3.97c0-1.81-1.48-3.28-3.3-3.28H65.4 c-1.83,0-3.31,1.47-3.31,3.28v3.97c0,1.81,1.48,3.29,3.31,3.29h19.72h0h0c1.82,0,3.3,1.47,3.3,3.28v3.97 c0,1.81-1.48,3.29-3.3,3.29H65.4c-1.83,0-3.31,1.47-3.31,3.29v3.97c0,1.81,1.48,3.28,3.31,3.28h19.72c1.82,0,3.3-1.47,3.3-3.28 v-3.97c0-1.81,1.48-3.29,3.31-3.29h17.07c1.82,0,3.3-1.47,3.3-3.29v-3.97C112.1,37.71,110.62,36.24,108.79,36.24"></path> <path id="Fill-7" class="st4" d="M106.84,65.67h-7.86c-1.76,0-2.36,0.92-2.36,2.09v4.43c0,0-0.01,0.09,0.08,0.09h1.55 c0.09,0,0.08-0.08,0.08-0.09v-1.63h7.51c0.03,0,0.09-0.01,0.09-0.07v-1.39c0-0.07-0.06-0.07-0.09-0.07h-7.5v-1.42 c0-0.3,0.13-0.4,0.46-0.4h8.27c0.33,0,0.44,0.1,0.44,0.4v4.59h0c0,0.03,0.01,0.08,0.08,0.08h1.55c0.07,0,0.08-0.06,0.08-0.08 v-4.44C109.2,66.59,108.6,65.67,106.84,65.67"></path> <path id="Fill-9" class="st4" d="M72.32,65.67h-7.86c-1.76,0-2.36,0.92-2.36,2.09v4.43c0,0-0.01,0.09,0.08,0.09h1.55 c0.09,0,0.08-0.08,0.08-0.09v-1.63h7.51c0.03,0,0.09-0.01,0.09-0.07v-1.39c0-0.07-0.06-0.07-0.09-0.07h-7.5v-1.42 c0-0.3,0.13-0.4,0.46-0.4l4.13,0l4.14,0c0.33,0,0.44,0.1,0.44,0.4v4.59c0,0.03,0.01,0.08,0.08,0.08h1.55 c0.07,0,0.08-0.06,0.08-0.08v-4.44C74.68,66.59,74.08,65.67,72.32,65.67"></path> <path id="Fill-11" class="st4" d="M78.6,65.67L78.6,65.67h-1.55h0c-0.07,0-0.08,0.06-0.08,0.08v6.44c0,0.03,0.01,0.08,0.08,0.08 h1.55c0.07,0,0.08-0.06,0.08-0.08v-6.44C78.67,65.72,78.67,65.67,78.6,65.67"></path> <path id="Fill-13" class="st4" d="M137.08,68.22c-0.03,0-9.02,0-9.02,0c-0.17,0-0.24-0.06-0.24-0.21c0-0.11,0-0.28,0-0.57 c0-0.16,0.09-0.23,0.28-0.23c0.12,0,9.51,0,10.47,0c0.03,0,0.09-0.01,0.09-0.07v-1.39c0-0.07-0.06-0.08-0.09-0.08H127.9 c-1.12,0-1.79,0.68-1.79,1.57v0.92c0,1.06,0.52,1.6,2.1,1.6c0,0,8.68,0,8.88,0c0.16,0,0.22,0.09,0.22,0.19v0.59 c0,0.14-0.07,0.2-0.28,0.2h-10.65c-0.03,0-0.09,0.01-0.09,0.08v1.39v0c0,0.07,0.06,0.08,0.09,0.08h10.57 c1.17,0,2.07-0.44,2.07-1.64v-0.87C139.01,68.81,138.33,68.22,137.08,68.22"></path> <path id="Fill-15" class="st4" d="M124,65.67L124,65.67h-1.55h0c-0.07,0-0.08,0.06-0.08,0.08v2.78c0,0.3-0.11,0.42-0.49,0.42 h-8.42c-0.38,0-0.49-0.12-0.49-0.42v-2.78v0c0-0.03-0.01-0.08-0.08-0.08h0h-1.55h0c-0.07,0-0.08,0.06-0.08,0.08v2.64 c0,1.16,0.6,2.09,2.36,2.09h3.2v1.72c0,0.03,0.01,0.08,0.08,0.08h1.55c0.07,0,0.08-0.06,0.08-0.08v-1.72h3.19 c1.76,0,2.36-0.92,2.36-2.09v-2.64C124.08,65.72,124.07,65.67,124,65.67"></path> <path id="Fill-17" class="st4" d="M86.95,69.5h1.55c0.07,0,0.08-0.05,0.08-0.08v-3.66c0-0.03-0.01-0.08-0.08-0.08h-1.55h0 c-0.07,0-0.08,0.05-0.08,0.08v3.66C86.87,69.44,86.88,69.5,86.95,69.5"></path> <path id="Fill-19" class="st4" d="M94.4,65.69L94.4,65.69h-1.55h0c-0.07,0-0.08,0.06-0.08,0.08v4.55c0,0.3-0.11,0.42-0.49,0.42 h-9.12c-0.38,0-0.49-0.12-0.49-0.42v-4.55c0-0.03-0.01-0.08-0.08-0.08h0h-1.55c-0.07,0-0.08,0.06-0.08,0.08v4.42 c0,1.16,0.6,2.09,2.36,2.09h8.8c1.76,0,2.36-0.92,2.36-2.09v-4.42C94.48,65.74,94.47,65.69,94.4,65.69"></path> </g> </g> <g id="Calque_6" class="st0"> <g id="Calque_2_00000065035257105749325530000012232950267410105260_" class="st1"> <g id="Calque_1-2"> <path class="st2" d="M36.7,33.8c0.55,0.54,1.09,1.06,1.63,1.6c1.61,1.62,3.26,3.21,4.83,4.87c1.5,1.59,2.77,3.36,3.66,5.37 c0.54,1.22,0.89,2.48,0.88,3.83c-0.02,2.24-1.49,4.21-3.63,4.87c-2.1,0.66-4.41-0.11-5.71-1.92c-0.08-0.13-0.17-0.25-0.26-0.37 c-0.15-0.17-0.39-0.22-0.59-0.12c-0.22,0.09-0.28,0.27-0.24,0.5c0.26,1.71,0.82,3.3,1.92,4.66c0.63,0.77,1.4,1.34,2.3,1.78h-9.62 c0.01-0.02,0.02-0.05,0.05-0.06c1.85-0.82,2.96-2.29,3.62-4.13c0.24-0.68,0.38-1.4,0.56-2.1c0.07-0.26,0.09-0.53-0.23-0.66 c-0.27-0.11-0.5-0.02-0.71,0.29c-0.88,1.31-2.11,2.09-3.68,2.31c-2.77,0.4-5.48-1.71-5.77-4.49c-0.15-1.49,0.2-2.88,0.77-4.23 c0.93-2.17,2.29-4.06,3.92-5.74c2.01-2.08,4.09-4.09,6.14-6.14C36.58,33.89,36.64,33.84,36.7,33.8z M42.55,43.48l-0.03-0.07 c-0.11-0.01-0.23-0.02-0.34-0.02c-1.26,0-2.52-0.01-3.78,0c-0.23,0-0.34-0.07-0.41-0.29c-0.36-1.15-0.73-2.29-1.11-3.43 c-0.06-0.17-0.12-0.34-0.21-0.59c-0.07,0.2-0.11,0.29-0.14,0.39c-0.38,1.16-0.77,2.32-1.13,3.49c-0.1,0.32-0.22,0.44-0.58,0.43 c-1.22-0.03-2.45-0.01-3.67-0.01c-0.11,0-0.22,0.01-0.42,0.02c0.16,0.12,0.24,0.19,0.32,0.25c1.02,0.74,2.03,1.48,3.05,2.21 c0.21,0.15,0.27,0.28,0.18,0.53c-0.33,0.96-0.64,1.93-0.95,2.9c-0.11,0.33-0.21,0.67-0.32,1c0.12-0.02,0.23-0.07,0.33-0.14 c1.03-0.74,2.06-1.48,3.07-2.24c0.19-0.14,0.31-0.15,0.5-0.01c1.02,0.76,2.05,1.5,3.07,2.24c0.09,0.07,0.19,0.12,0.35,0.24 c-0.06-0.2-0.08-0.31-0.12-0.42c-0.39-1.2-0.78-2.41-1.18-3.61c-0.07-0.21-0.03-0.33,0.15-0.46c1.03-0.74,2.05-1.49,3.08-2.23 C42.37,43.62,42.46,43.55,42.55,43.48z"></path> <path class="st2" d="M153.25,40.67c0.06-0.01,0.12-0.02,0.18-0.03c2.3,0.01,4.6-0.01,6.89,0.03c1.08,0.02,2.05,0.39,2.74,1.27 c1.52,1.95,0.56,5.04-1.8,5.77c-0.07,0.02-0.14,0.05-0.26,0.09l1.68,2.13l1.69,2.14h-1.18c-0.64,0-1.28,0.01-1.92-0.01 c-0.16-0.01-0.31-0.09-0.42-0.21c-0.92-1.21-1.83-2.42-2.73-3.64c-0.11-0.17-0.31-0.27-0.51-0.25c-0.53,0.02-1.06,0-1.62,0v4.07 h-2.74L153.25,40.67z M156.02,45.71c1.22,0,2.4,0,3.59,0c0.03,0,0.06-0.01,0.1-0.02c0.79-0.18,1.17-0.64,1.16-1.41 c-0.01-0.78-0.42-1.27-1.21-1.41c-0.2-0.03-0.41-0.05-0.61-0.05c-0.89-0.01-1.77,0-2.66,0h-0.36V45.71z"></path> <path class="st2" d="M106.07,40.66c0.07-0.01,0.14-0.02,0.21-0.02c2.24,0,4.49,0,6.73,0.02c0.29,0.01,0.58,0.04,0.87,0.1 c2.49,0.53,3,2.73,2.55,4.52c-0.31,1.23-1.09,2.04-2.31,2.42c-0.08,0.03-0.16,0.05-0.3,0.1l3.35,4.24 c-0.14,0.01-0.23,0.03-0.32,0.03c-0.92,0-1.84,0.01-2.76-0.01c-0.16-0.01-0.31-0.09-0.42-0.22c-0.92-1.21-1.83-2.42-2.73-3.64 c-0.13-0.17-0.26-0.25-0.48-0.25c-0.53,0.02-1.06,0.01-1.63,0.01v4.07h-2.76V40.66z M108.83,42.82v2.9 c0.07,0.01,0.14,0.02,0.21,0.02c0.95,0,1.9,0.01,2.86-0.01c0.32-0.01,0.64-0.07,0.95-0.17c0.51-0.17,0.78-0.56,0.82-1.1 c0.08-0.98-0.43-1.59-1.49-1.64C111.08,42.78,109.97,42.82,108.83,42.82z"></path> <path class="st2" d="M80.22,46.38c0.02,2.6-1.26,4.54-3.55,5.38c-1.11,0.41-2.25,0.53-3.42,0.44c-0.9-0.07-1.78-0.27-2.6-0.67 c-1.62-0.8-2.6-2.08-2.93-3.85c-0.2-1.01-0.17-2.06,0.1-3.06c0.46-1.74,1.54-2.97,3.21-3.62c1.82-0.72,3.69-0.75,5.53-0.09 c2.27,0.81,3.44,2.49,3.65,4.86C80.24,45.96,80.22,46.17,80.22,46.38z M70.54,46.37c0.02,0.2,0.02,0.43,0.05,0.66 c0.19,1.32,0.82,2.32,2.14,2.72c1.36,0.41,2.66,0.26,3.69-0.82c1.14-1.19,1.2-3.7,0.1-5.01c-0.98-1.17-2.28-1.33-3.67-0.97 c-1.28,0.33-2.1,1.37-2.26,2.76C70.57,45.91,70.56,46.13,70.54,46.37z"></path> <path class="st2" d="M138.56,52.06c0.35-0.86,0.68-1.66,1-2.46c1.18-2.86,2.35-5.73,3.52-8.6c0.11-0.27,0.23-0.38,0.54-0.37 c1.07,0.02,2.15,0.01,3.22,0c0.22,0,0.33,0.06,0.41,0.27c1.48,3.64,2.97,7.28,4.47,10.91c0.03,0.07,0.04,0.14,0.08,0.26h-1.09 c-0.54,0-1.08-0.01-1.63,0c-0.2,0-0.29-0.06-0.36-0.24c-0.23-0.63-0.48-1.25-0.72-1.88c-0.07-0.2-0.18-0.26-0.38-0.25 c-1.63,0.01-3.25,0.01-4.88,0c-0.23,0-0.33,0.08-0.4,0.28c-0.23,0.62-0.46,1.24-0.72,1.85c-0.04,0.1-0.17,0.22-0.25,0.22 C140.47,52.06,139.55,52.06,138.56,52.06z M145.19,42.68c-0.63,1.63-1.23,3.17-1.84,4.74h3.68 C146.42,45.85,145.82,44.31,145.19,42.68L145.19,42.68z"></path> <path class="st2" d="M82,40.64h2.58c0.23,0,0.18,0.18,0.18,0.31c0,1.53,0,3.05,0,4.58V46c0.2-0.22,0.33-0.35,0.46-0.5 c1.38-1.54,2.76-3.09,4.13-4.63c0.13-0.16,0.32-0.25,0.53-0.24c0.92,0.01,1.84,0,2.76,0.01c0.09,0,0.19,0.01,0.36,0.02l-4.5,4.81 l4.98,6.56c-0.13,0.01-0.22,0.03-0.31,0.03c-0.93,0-1.86-0.01-2.8,0.01c-0.19,0.01-0.38-0.08-0.48-0.24 c-1.01-1.38-2.03-2.76-3.05-4.13c-0.07-0.09-0.13-0.17-0.3-0.39c-0.05,0.12-0.07,0.23-0.13,0.3c-0.48,0.56-0.98,1.1-1.45,1.67 c-0.11,0.15-0.18,0.33-0.19,0.52c-0.02,0.74-0.01,1.49-0.01,2.25H82V40.64z"></path> <path class="st2" d="M104,49.71v2.32h-9.03V40.66h9.02v2.27h-6.25v2.2h5.6v2.18h-5.6v2.4H104z"></path> <path class="st2" d="M165.8,49.44c1.28,0.13,2.51,0.29,3.74,0.36c0.66,0.04,1.34-0.04,2-0.13c0.28-0.05,0.54-0.17,0.76-0.34 c0.57-0.44,0.49-1.28-0.17-1.57c-0.36-0.15-0.74-0.24-1.13-0.27c-0.91-0.09-1.81-0.14-2.72-0.2c-0.07-0.01-0.13-0.02-0.2-0.03 c-1.56-0.31-2.48-1.17-2.64-2.48c-0.2-1.7,0.5-3.03,1.98-3.73c0.92-0.43,1.9-0.57,2.91-0.59c1.31-0.02,2.62,0.09,3.92,0.32 c0.3,0.05,0.44,0.15,0.42,0.49c-0.03,0.65-0.01,1.3-0.01,1.96c-0.7-0.11-1.37-0.25-2.04-0.33c-1.12-0.13-2.24-0.27-3.37-0.04 c-0.25,0.05-0.5,0.15-0.72,0.28c-0.32,0.17-0.49,0.52-0.44,0.87c0.04,0.39,0.26,0.65,0.63,0.74c0.4,0.09,0.81,0.15,1.22,0.18 c0.96,0.09,1.93,0.1,2.88,0.27c1.52,0.28,2.37,1.2,2.57,2.59c0.23,1.58-0.37,2.9-1.65,3.63c-1.03,0.59-2.16,0.75-3.32,0.78 c-1.46,0.03-2.9-0.1-4.34-0.34c-0.21-0.04-0.29-0.11-0.29-0.33C165.81,50.83,165.8,50.12,165.8,49.44z"></path> <path class="st2" d="M127.39,43.18c-1.26-0.14-2.47-0.3-3.69-0.39c-0.54-0.04-1.1,0.03-1.65,0.09c-0.25,0.03-0.5,0.15-0.72,0.28 c-0.31,0.16-0.48,0.5-0.43,0.85c0.04,0.39,0.25,0.66,0.62,0.75c0.41,0.09,0.83,0.15,1.25,0.19c0.95,0.09,1.91,0.1,2.84,0.27 c1.43,0.26,2.27,1.13,2.49,2.4c0.28,1.64-0.26,3.01-1.5,3.77c-1.04,0.64-2.21,0.81-3.4,0.83c-1.44,0.03-2.88-0.11-4.3-0.35 c-0.21-0.04-0.29-0.11-0.28-0.33c0.01-0.71,0.01-1.42,0.01-2.14c0.8,0.11,1.57,0.27,2.34,0.32c1,0.07,2.01,0.07,3.02,0.04 c0.34-0.01,0.69-0.16,1.01-0.32c0.36-0.18,0.51-0.52,0.5-0.92c-0.02-0.4-0.26-0.67-0.62-0.79c-0.35-0.12-0.71-0.19-1.07-0.23 c-0.89-0.08-1.79-0.13-2.69-0.2c-0.1-0.01-0.19-0.03-0.29-0.05c-1.28-0.28-2.25-0.92-2.51-2.3c-0.29-1.49,0.27-2.85,1.47-3.62 c0.91-0.59,1.94-0.79,3-0.84c1.43-0.07,2.86,0.07,4.27,0.32c0.28,0.05,0.36,0.17,0.35,0.45 C127.38,41.9,127.39,42.56,127.39,43.18z"></path> <path class="st2" d="M58.74,48.27v3.77h-2.74V40.67c0.06-0.02,0.12-0.03,0.19-0.03c2.21,0,4.43-0.02,6.63,0.03 c0.57,0.02,1.14,0.14,1.67,0.36c1.29,0.53,1.97,1.78,1.92,3.35c-0.07,2.35-1.53,3.76-4.05,3.86c-1.07,0.04-2.15,0.01-3.22,0.02 C59.02,48.27,58.9,48.27,58.74,48.27z M58.77,45.94c1.1,0,2.19,0.05,3.26-0.01c1.13-0.06,1.7-0.91,1.44-2.03 c-0.16-0.69-0.7-1.07-1.58-1.08c-0.99-0.01-1.97,0-2.96,0c-0.06,0-0.13,0.01-0.19,0.03c0,0.94,0,1.87,0,2.8 C58.75,45.73,58.76,45.83,58.77,45.94L58.77,45.94z"></path> <path class="st2" d="M95.16,64.06c-0.91,0-1.72,0.01-2.53-0.01c-0.11,0-0.25-0.11-0.33-0.21c-0.71-0.93-1.41-1.87-2.1-2.81 c-0.14-0.19-0.28-0.26-0.51-0.25c-0.39,0.02-0.78,0-1.22,0v3.26h-2.21v-9.14h0.36c1.62,0,3.23-0.02,4.85,0.01 c0.53,0,1.05,0.09,1.56,0.26c1.17,0.42,1.78,1.55,1.63,2.91c-0.14,1.26-0.77,2.13-2.03,2.5c-0.05,0.02-0.1,0.04-0.15,0.07 L95.16,64.06z M88.48,56.71v2.31c0.74,0,1.47,0.01,2.19,0c0.25,0,0.5-0.02,0.74-0.06c0.64-0.13,0.94-0.5,0.93-1.13 c-0.01-0.62-0.33-1.06-0.96-1.1C90.42,56.66,89.46,56.71,88.48,56.71L88.48,56.71z"></path> <path class="st2" d="M74.65,59.51c0-2.61,1.65-4.45,4.26-4.67c0.73-0.07,1.47-0.04,2.19,0.1c2.36,0.46,3.72,2.23,3.67,4.65 c-0.05,2.69-1.83,4.48-4.63,4.59c-0.72,0.03-1.45-0.04-2.15-0.21C75.87,63.44,74.65,61.77,74.65,59.51z M76.98,59.48l0.04,0.01 c0.01,0.16,0.01,0.33,0.03,0.49c0.15,1.41,1.12,2.32,2.55,2.38s2.5-0.73,2.74-2.1c0.08-0.46,0.08-0.93,0.02-1.39 c-0.15-1.25-1.04-2.1-2.23-2.22c-1.43-0.14-2.52,0.47-2.92,1.69C77.08,58.71,77.05,59.1,76.98,59.48L76.98,59.48z"></path> <path class="st2" d="M129.03,40.66h10.33v2.37h-3.78v9.01h-2.75v-9h-3.8L129.03,40.66z"></path> <path class="st2" d="M63.29,55.13v1.86c-0.7-0.1-1.38-0.25-2.07-0.29c-0.73-0.04-1.47-0.03-2.2,0.02 c-0.22,0.01-0.46,0.14-0.64,0.28c-0.3,0.21-0.38,0.63-0.16,0.94c0.07,0.11,0.18,0.19,0.3,0.24c0.25,0.11,0.54,0.14,0.82,0.17 c0.79,0.07,1.58,0.08,2.36,0.2c1.27,0.2,2.02,0.92,2.19,2.03c0.21,1.4-0.3,2.5-1.45,3.09c-0.69,0.36-1.46,0.53-2.23,0.51 c-1.22-0.04-2.44-0.16-3.66-0.26c-0.09-0.01-0.24-0.13-0.25-0.21c-0.02-0.58-0.01-1.17-0.01-1.79c0.34,0.06,0.66,0.14,0.98,0.16 c1.06,0.07,2.12,0.14,3.18,0.16c0.29,0.01,0.6-0.11,0.87-0.23c0.33-0.14,0.48-0.42,0.47-0.78c0-0.32-0.23-0.59-0.54-0.65 c-0.49-0.11-1-0.15-1.51-0.21c-0.6-0.07-1.21-0.08-1.81-0.2c-0.95-0.19-1.66-0.72-1.87-1.72c-0.22-1.08,0.01-2.05,0.89-2.79 c0.55-0.46,1.21-0.67,1.9-0.79C59.94,54.69,62.26,54.81,63.29,55.13z"></path> <path class="st2" d="M112.34,55.11v1.88c-0.7-0.1-1.38-0.24-2.07-0.3c-0.61-0.05-1.23-0.06-1.85-0.03 c-0.31,0.02-0.63,0.15-0.92,0.28c-0.26,0.12-0.38,0.38-0.34,0.68s0.2,0.53,0.49,0.58c0.5,0.09,1.01,0.13,1.51,0.19 c0.6,0.07,1.21,0.07,1.81,0.19c1.06,0.21,1.78,0.84,1.95,1.95c0.17,1.17-0.05,2.21-1.1,2.92c-0.77,0.53-1.66,0.73-2.56,0.71 c-1.23-0.03-2.46-0.16-3.69-0.25c-0.07-0.01-0.15-0.04-0.22-0.07v-1.92c0.68,0.09,1.34,0.22,2.01,0.27 c0.71,0.05,1.43,0.05,2.14,0.03c0.27-0.01,0.56-0.1,0.81-0.2c0.33-0.12,0.54-0.44,0.51-0.79c-0.01-0.38-0.26-0.61-0.59-0.68 c-0.45-0.1-0.92-0.14-1.38-0.19c-0.61-0.07-1.24-0.07-1.84-0.19c-1-0.2-1.75-0.74-1.93-1.81c-0.2-1.17,0.1-2.18,1.13-2.87 c0.74-0.51,1.59-0.67,2.47-0.71C109.91,54.74,111.14,54.85,112.34,55.11z"></path> <path class="st2" d="M67.44,61.02v3.02h-2.21v-9.11c0.1-0.01,0.18-0.02,0.26-0.02c1.65,0,3.3,0,4.94,0 c0.28,0,0.56,0.03,0.84,0.08c1.55,0.29,2.41,1.47,2.28,3.12c-0.13,1.72-1.25,2.8-3.05,2.89c-0.88,0.04-1.76,0.02-2.63,0.02 L67.44,61.02z M67.45,59.19c0.65,0,1.27,0.01,1.88,0c0.32,0,0.65-0.02,0.97-0.07c0.44-0.08,0.77-0.33,0.89-0.79 c0.26-0.94-0.24-1.64-1.21-1.66c-0.79-0.01-1.58,0-2.37,0c-0.05,0.01-0.11,0.01-0.16,0.03V59.19z"></path> <path class="st2" d="M98.76,64.04v-7.2h-3.02v-1.9H104v1.88h-2.99v7.22H98.76z"></path> </g> </g> </g> </svg> 