<?xml version="1.0" encoding="UTF-8"?> <svg xmlns="http://www.w3.org/2000/svg" xmlns:xlink="http://www.w3.org/1999/xlink" version="1.1" id="Calque_1" x="0px" y="0px" viewBox="0 0 200 100" style="enable-background:new 0 0 200 100;" xml:space="preserve"> <style type="text/css"> .st0{fill:#f4f4f5;} </style> <g id="Calque_9"> <g> <path class="st0" d="M129.53,31.71c-6.49,0-12.98,0-19.47,0.01c-0.15,0-0.24-0.04-0.34-0.16c-2.08-2.74-4.84-4.28-8.27-4.57 c-1.06-0.09-2.11-0.03-3.14,0.21c-4.04,0.95-6.8,3.38-8.31,7.25c-0.16,0.41-0.26,0.83-0.4,1.28c-0.41-1.35-0.42-2.66-0.1-4.01 c-0.1,0-0.17,0-0.25,0c-5.84,0-11.68,0-17.52,0c-0.03,0-0.07,0-0.1,0c-0.12-0.02-0.17,0.03-0.16,0.16 c0.02,0.25,0.03,0.51,0.07,0.76c0.46,2.47,1.87,4.17,4.28,4.85c2.39,0.68,4.83,1.19,7.26,1.78c2.13,0.51,4.26,1.03,6.39,1.54 c0.12,0.03,0.19,0.07,0.22,0.2c0.57,2.22,1.68,4.11,3.4,5.63c2.84,2.5,6.16,3.39,9.86,2.65c3.24-0.66,5.71-2.48,7.41-5.31 c0.92-1.53,1.44-3.2,1.55-4.98c0.05-0.83-0.01-1.66-0.12-2.51c0.04,0.02,0.05,0.02,0.06,0.03c0.03,0.03,0.05,0.06,0.07,0.09 c0.82,1.08,1.29,2.31,1.5,3.64c0.02,0.14,0.06,0.16,0.19,0.13c0.69-0.17,1.39-0.34,2.09-0.51c2.89-0.7,5.78-1.39,8.67-2.09 c0.75-0.18,1.5-0.33,2.18-0.71c2.01-1.12,3.13-2.8,3.23-5.13C129.77,31.73,129.7,31.71,129.53,31.71z M99.32,36.12 c-0.01,0-0.01,0-0.02,0l0,0C99.31,36.12,99.32,36.12,99.32,36.12z M101.15,40.69c-1.17,0.27-2.38-0.38-2.84-1.5 c-0.46-1.11-0.06-2.4,0.96-3.05c0.01-0.01,0.02-0.01,0.03-0.02c0,0.19-0.08,0.36-0.13,0.53c-0.14,0.53-0.03,1.03,0.18,1.51 c0.58,1.29,2.08,1.83,3.36,1.24c0.03-0.02,0.07-0.03,0.11-0.04c0.01,0.01,0.01,0.01,0.02,0.02 C102.48,40.09,101.91,40.51,101.15,40.69z"></path> <path class="st0" d="M82.94,65.85c0.01-0.55-0.02-1.1-0.1-1.65c-0.15-1.08-0.57-2.05-1.35-2.84c-1.04-1.05-2.34-1.5-3.8-1.54 c-0.43-0.01-0.85,0.01-1.27,0.08c-1.02,0.18-1.94,0.59-2.71,1.29c-1.05,0.96-1.59,2.17-1.71,3.59c-0.06,0.78-0.01,1.55,0.19,2.3 c0.7,2.6,2.89,3.62,5.24,3.4c0.86-0.08,1.65-0.45,2.33-1.11c-0.03,0.42-0.04,0.78-0.12,1.14c-0.18,0.79-0.61,1.36-1.36,1.66 c-0.82,0.33-1.68,0.29-2.52,0.18c-0.66-0.09-1.32-0.26-1.93-0.55c-0.1-0.05-0.13-0.02-0.16,0.08c-0.25,0.7-0.5,1.4-0.77,2.1 c-0.06,0.15-0.02,0.2,0.11,0.26c0.58,0.28,1.19,0.47,1.82,0.59c0.5,0.1,0.99,0.21,1.51,0.23c0.77,0.03,1.55,0.04,2.31-0.12 c1.51-0.31,2.7-1.08,3.47-2.44c0.5-0.9,0.73-1.88,0.79-2.9C82.98,68.35,82.93,67.1,82.94,65.85z M79.53,66.4 c-0.42,0.87-1.14,1.26-1.91,1.27c-1.28-0.02-2.17-0.65-2.33-1.79c-0.14-0.97,0.06-1.84,0.83-2.49c0.66-0.55,1.43-0.63,2.22-0.33 c0.78,0.3,1.23,0.92,1.37,1.74C79.79,65.35,79.78,65.9,79.53,66.4z"></path> <path class="st0" d="M94.74,26.75c2.04-1.05,4.21-1.52,6.5-1.42c1.85,0.08,3.61,0.55,5.26,1.39c0.17,0.09,0.21,0.04,0.26-0.12 c0.35-1.11,0.41-2.23,0.17-3.37c-0.6-2.78-3.06-4.9-5.86-5.04c0-0.01,0-0.02,0-0.04c-0.29,0-0.57,0-0.86,0c0,0.01,0,0.02,0,0.03 c-0.3,0.02-0.59,0.06-0.89,0.12c-3.75,0.73-6.05,4.74-4.79,8.36C94.57,26.8,94.61,26.82,94.74,26.75z"></path> <path class="st0" d="M118.44,59.81c-1.64-0.06-3.05,0.48-4.22,1.62c-1.1,1.09-1.61,2.44-1.62,3.97c-0.02,3.08,2.46,5.59,5.48,5.59 c2.99,0.1,5.7-2.25,5.7-5.59C123.77,62.09,121.18,59.91,118.44,59.81z M119.37,67.66c-0.41,0.26-0.87,0.39-1.33,0.35 c-0.82-0.08-1.48-0.5-1.85-1.26c-0.45-0.92-0.45-1.88,0.05-2.78c0.69-1.25,2.23-1.53,3.33-0.68c0.6,0.47,0.93,1.22,0.93,2.29 C120.48,66.34,120.19,67.13,119.37,67.66z"></path> <path class="st0" d="M66.15,59.81c-3.18-0.14-5.84,2.37-5.82,5.59c0.01,1.54,0.52,2.88,1.61,3.97c1.07,1.06,2.37,1.61,3.88,1.63 c3.06,0.08,5.69-2.33,5.68-5.6C71.49,62.08,68.92,59.93,66.15,59.81z M68.1,66.29c-0.27,0.93-0.9,1.49-1.84,1.69 c-0.11,0.02-0.23,0-0.35,0c-0.93-0.01-1.61-0.46-2.01-1.27c-0.41-0.84-0.4-1.72-0.02-2.57c0.4-0.9,1.28-1.4,2.26-1.31 c1.13,0.1,1.96,1.06,2.05,2.15C68.23,65.43,68.22,65.86,68.1,66.29z"></path> <path class="st0" d="M146.89,61.02c-0.7-0.66-1.55-1.01-2.51-1.14c-0.81-0.11-1.6-0.1-2.39,0.09c-2.22,0.56-3.88,2.58-3.97,4.87 c-0.02,0.54-0.02,1.09,0.07,1.63c0.21,1.35,0.78,2.52,1.86,3.39c1.01,0.82,2.19,1.15,3.47,1.13c0.31-0.02,0.62-0.01,0.92-0.04 c1.08-0.13,2.12-0.39,3.08-0.91c0.3-0.16,0.3-0.16,0.16-0.46c-0.31-0.65-0.61-1.29-0.92-1.93c-0.02-0.05-0.02-0.13-0.13-0.07 c-0.62,0.34-1.3,0.5-1.99,0.57c-0.72,0.08-1.44,0.04-2.12-0.26c-0.43-0.19-0.77-0.48-0.95-0.93c-0.04-0.1-0.05-0.16,0.1-0.16 c0.44,0,0.88,0,1.32-0.02c0.56-0.02,1.11-0.05,1.66-0.13c0.64-0.09,1.28-0.24,1.87-0.52c0.65-0.31,1.16-0.76,1.39-1.47 c0.11-0.32,0.14-0.65,0.16-0.97C148.03,62.64,147.65,61.74,146.89,61.02z M144.89,63.7c-0.04,0.23-0.17,0.39-0.37,0.49 c-0.43,0.23-0.91,0.28-1.39,0.35c-0.61,0.09-1.23,0.07-1.88,0.08c0.08-0.78,0.33-1.48,1.05-1.93c0.6-0.38,1.25-0.4,1.91-0.17 C144.72,62.7,144.98,63.18,144.89,63.7z"></path> <path class="st0" d="M92.21,60.95c-0.69-0.61-1.51-0.94-2.42-1.06c-0.66-0.08-1.31-0.11-1.97,0.01c-2.89,0.53-4.22,2.78-4.39,5.01 c-0.04,0.53-0.02,1.08,0.07,1.61c0.19,1.14,0.63,2.16,1.44,2.99c1.05,1.06,2.36,1.5,3.83,1.5c0.66,0,1.32-0.07,1.97-0.21 c0.81-0.17,1.58-0.44,2.29-0.86c0.09-0.05,0.08-0.09,0.05-0.17c-0.34-0.71-0.68-1.42-1.01-2.13c-0.04-0.09-0.08-0.09-0.16-0.04 c-0.21,0.13-0.45,0.21-0.68,0.28c-0.96,0.31-1.94,0.43-2.93,0.18c-0.62-0.16-1.14-0.45-1.42-1.08c-0.08-0.18-0.01-0.18,0.13-0.18 c0.71,0.01,1.41-0.02,2.12-0.07c0.56-0.04,1.11-0.11,1.66-0.24c0.28-0.07,0.55-0.16,0.82-0.26c1.19-0.45,1.77-1.33,1.8-2.58 C93.43,62.57,93.02,61.66,92.21,60.95z M90.27,63.81c-0.07,0.21-0.22,0.33-0.4,0.42c-0.38,0.19-0.8,0.26-1.21,0.31 c-0.43,0.05-0.86,0.12-1.29,0.09c-0.18,0-0.36-0.01-0.55,0c-0.1,0-0.15-0.01-0.14-0.14c0.11-1.1,0.81-2.03,2.01-2.09 c0.34-0.02,0.67,0.02,0.99,0.16C90.19,62.78,90.43,63.3,90.27,63.81z"></path> <path class="st0" d="M113.03,60.62c-0.7-0.44-1.45-0.62-2.27-0.47c-0.59,0.11-0.94,0.51-1.16,1.03c-0.48,1.14-0.89,2.3-1.34,3.45 c-0.29,0.74-0.58,1.48-0.87,2.23c-0.08-0.05-0.09-0.12-0.11-0.18c-0.84-2-1.62-4.04-2.3-6.1c-0.04-0.13-0.11-0.2-0.24-0.25 c-0.47-0.19-0.95-0.25-1.45-0.23c-0.78,0.03-1.29,0.44-1.42,1.14c-0.08,0.4,0.02,0.79,0.16,1.16c1.05,2.82,2.35,5.53,3.73,8.2 c0.05,0.1,0.12,0.12,0.22,0.12c0.86,0,1.72-0.01,2.58,0c0.17,0,0.25-0.05,0.32-0.2c1.25-2.5,2.38-5.05,3.44-7.63 c0.28-0.67,0.56-1.34,0.76-2.04C113.11,60.76,113.14,60.69,113.03,60.62z"></path> <path class="st0" d="M136.73,67.38c-0.05-0.09-0.07-0.12-0.18-0.05c-0.82,0.51-1.71,0.75-2.68,0.62 c-0.87-0.12-1.53-0.54-1.87-1.37c-0.3-0.75-0.3-1.52-0.01-2.27c0.3-0.79,0.88-1.27,1.7-1.46c0.48-0.11,0.97-0.08,1.45,0.01 c0.61,0.12,1.12,0.43,1.58,0.84c0.09,0.08,0.14,0.09,0.23,0.01c0.3-0.24,0.55-0.51,0.74-0.85c0.44-0.78,0.3-1.56-0.37-2.14 c-0.1-0.09-0.21-0.17-0.33-0.24c-0.78-0.47-1.66-0.6-2.55-0.66c-0.55-0.04-1.1,0-1.64,0.12c-1.43,0.31-2.61,1.01-3.41,2.27 c-0.64,0.99-0.89,2.09-0.85,3.26c0,0.24-0.02,0.48,0,0.72c0.02,0.22,0.07,0.45,0.12,0.67c0.59,2.57,2.43,3.87,4.75,4.13 c0.58,0.06,1.16,0.03,1.74-0.06c0.99-0.16,1.92-0.48,2.76-1.04c0.11-0.08,0.1-0.13,0.05-0.23 C137.56,68.9,137.14,68.14,136.73,67.38z"></path> <path class="st0" d="M100.65,60.29c-0.57-0.34-1.21-0.43-1.86-0.47c-0.85-0.05-1.68,0.02-2.48,0.36c-1.46,0.62-2.21,1.79-2.35,3.3 c-0.11,1.17-0.02,2.36-0.02,3.53c0,1.17,0,2.34,0,3.52c0,0.15,0.03,0.2,0.19,0.2c0.93-0.01,1.86-0.01,2.79,0 c0.18,0,0.21-0.05,0.21-0.22c-0.01-1.9-0.01-3.8,0-5.7c0-0.26,0.01-0.53,0.09-0.79c0.21-0.7,0.83-1.17,1.56-1.19 c0.67-0.02,1.29,0.12,1.89,0.4c0.1,0.04,0.15,0.03,0.21-0.05c0.15-0.18,0.29-0.37,0.4-0.58c0.27-0.52,0.33-1.07,0.09-1.61 C101.22,60.66,100.94,60.47,100.65,60.29z"></path> <path class="st0" d="M60.05,60.33c-0.43-0.25-0.89-0.41-1.39-0.47c-0.68-0.07-1.37-0.1-2.05,0.03c-0.9,0.17-1.71,0.53-2.33,1.24 c-0.71,0.81-1,1.76-1,2.82l-0.02-0.01l-0.01,0.01c0,2.25,0,4.51,0,6.76c0.02,0,0.03-0.01,0.05-0.01c0.99,0,1.98,0,2.97,0.01 c0.17,0,0.2-0.05,0.2-0.21c-0.01-1.88,0-3.75,0-5.63c0-0.19,0.01-0.39,0.03-0.58c0.1-0.89,0.77-1.46,1.67-1.48 c0.65-0.02,1.25,0.13,1.83,0.4c0.08,0.04,0.13,0.06,0.2-0.03c0.25-0.3,0.49-0.62,0.58-1C60.96,61.39,60.79,60.77,60.05,60.33z"></path> <path class="st0" d="M127.79,65.54c0-1.65,0-3.31,0-4.96c0-0.08,0.03-0.17-0.09-0.21c-0.62-0.21-1.24-0.34-1.89-0.25 c-0.77,0.12-1.2,0.58-1.2,1.33c0,3.03,0,6.05-0.01,9.08c0,0.16,0.06,0.17,0.19,0.17c0.93-0.01,1.86-0.01,2.79,0 c0.18,0,0.21-0.05,0.21-0.22C127.79,68.85,127.79,67.2,127.79,65.54z"></path> <path class="st0" d="M126.16,55.4c-0.24-0.03-0.49,0.02-0.74,0.14c-0.71,0.33-1.19,1.28-0.96,2.19c0.23,0.94,1.18,1.62,2.22,1.31 c1.02-0.31,1.44-1.3,1.21-2.33C127.74,56,126.98,55.3,126.16,55.4z"></path> </g> </g> </svg> 