<?xml version="1.0" encoding="UTF-8"?> <svg xmlns="http://www.w3.org/2000/svg" xmlns:xlink="http://www.w3.org/1999/xlink" version="1.1" id="Calque_9" x="0px" y="0px" viewBox="0 0 200 100" style="enable-background:new 0 0 200 100;" xml:space="preserve"> <style type="text/css"> .st0{fill:#f4f4f5;} </style> <g> <g> <path class="st0" d="M57.17,50.06c-0.05,0.1-0.17,0.12-0.26,0.18c-0.51,0.33-0.89,0.74-1.03,1.35c-0.02,0.08-0.03,0.17-0.04,0.26 c-0.02,0.45,0.03,0.51,0.47,0.6c0.25,0.05,0.5,0.11,0.75,0.16c0.07-0.09,0-0.15-0.02-0.22c-0.23-0.52-0.14-0.99,0.2-1.43 c0.27-0.36,0.63-0.62,1.01-0.85c0.37-0.23,0.37-0.28,0.05-0.6c-0.28-0.27-0.61-0.45-0.97-0.58c-0.82-0.29-1.66-0.45-2.53-0.46 c-0.09,0-0.19,0.02-0.28-0.02c-0.01-0.1,0.08-0.12,0.13-0.16c0.86-0.61,1.82-0.85,2.87-0.85c0.74,0,1.43,0.2,2.07,0.57 c0.33,0.19,0.65,0.38,0.97,0.58c0.68,0.42,1.42,0.66,2.21,0.79c0.32,0.05,0.64,0.03,0.99-0.02c-0.06-0.25-0.24-0.41-0.29-0.64 c0.23-0.02,0.4,0.04,0.57,0.19c1.07,0.9,2.07,1.86,3.11,2.78c0.23,0.2,0.17,0.44-0.1,0.57c-0.22,0.1-0.39,0.11-0.61-0.06 c-0.3-0.24-0.7-0.27-1.08-0.28c-0.14,0-0.28,0.01-0.42,0.01c-0.34-0.01-0.64-0.14-0.84-0.42c-0.1-0.15-0.22-0.18-0.38-0.17 c-0.56,0.05-1.08,0.22-1.52,0.57c-0.49,0.38-0.88,0.85-1.22,1.38c-0.05,0.07-0.08,0.15-0.12,0.23c-0.05,0.12-0.05,0.21,0.1,0.24 c0.03,0.01,0.06,0.02,0.09,0.03c2.29,0.71,4.38,1.81,6.34,3.18c0.22,0.15,0.43,0.21,0.69,0.21c2.55-0.01,5.1,0.01,7.64-0.01 c1.42-0.01,2.48-0.69,3.11-1.96c1.03-2.1-0.39-4.61-2.71-4.86c-0.19-0.02-0.39-0.03-0.58-0.03c-1.84,0-3.67,0-5.51,0 c-0.09,0-0.17,0-0.26,0c-0.24-0.01-0.24-0.01-0.24-0.23c0-1.04,0-2.07,0-3.11c0-0.16,0.05-0.23,0.22-0.23c0.33,0.01,0.67,0,1,0 c1.67,0,3.35-0.01,5.02,0c3.09,0.02,5.8,2.06,6.67,5c1.18,4-1.37,8.14-5.48,8.88c-0.37,0.07-0.75,0.1-1.13,0.1 c-7.18,0-14.36,0-21.54,0c-4.11,0-7.94-2.62-9.52-6.49c-2.46-6.02,1.11-12.81,7.47-14.2c0.69-0.15,1.38-0.23,2.09-0.23 c4.93,0,9.87,0,14.8,0c0.05,0,0.11,0,0.16,0c0.15-0.01,0.22,0.05,0.21,0.21c0,0.04,0,0.09,0,0.13c0,0.98,0,1.96,0,2.95 c0,0.27,0,0.27-0.27,0.27c-0.09,0-0.17,0-0.26,0c-4.79,0-9.59,0-14.38,0c-1.89,0-3.54,0.62-4.9,1.93 c-1.29,1.24-1.99,2.77-2.11,4.56c-0.02,0.22,0.01,0.24,0.24,0.17c0.81-0.24,1.63-0.42,2.47-0.52c1.23-0.16,2.45-0.17,3.68-0.06 c1.02,0.09,2.03,0.27,3.02,0.54C57.06,49.99,57.13,49.99,57.17,50.06z M62.37,57.14c-0.05-0.12-0.14-0.18-0.22-0.25 c-0.44-0.38-0.91-0.73-1.4-1.05c-2.01-1.3-4.23-1.96-6.61-2.13c-0.38-0.03-0.75-0.03-1.12,0.07c-1.08,0.29-2.11,0.7-3.03,1.34 c-0.24,0.17-0.24,0.17-0.01,0.37c0.13,0.11,0.27,0.22,0.4,0.32c1.22,0.89,2.59,1.35,4.11,1.35c2.51,0,5.03,0,7.54,0 C62.14,57.17,62.25,57.19,62.37,57.14z M51.66,50.04c-1.35,0.17-2.61,0.53-3.82,1.06c-0.16,0.07-0.19,0.16-0.17,0.32 c0.14,0.84,0.44,1.62,0.87,2.35c0.07,0.13,0.16,0.15,0.29,0.11c0.22-0.07,0.44-0.11,0.66-0.16c0.17-0.04,0.34-0.07,0.5-0.13 c0.36-0.14,0.49-0.34,0.45-0.72c-0.02-0.17-0.05-0.34-0.09-0.51c-0.27-0.97,0.29-1.77,1.01-2.12 C51.45,50.2,51.56,50.18,51.66,50.04z M65.47,57.17c0.01-0.03,0.02-0.06,0.03-0.09c-1.39-1.22-2.98-2.08-4.74-2.73 c-0.01,0.23,0.07,0.38,0.16,0.52c0.13,0.2,0.32,0.35,0.52,0.47c0.86,0.5,1.67,1.07,2.43,1.71c0.07,0.06,0.13,0.11,0.23,0.11 C64.55,57.17,65.01,57.17,65.47,57.17z M61.83,49.62c0.01-0.02,0.01-0.05,0.02-0.07c-0.44-0.21-0.88-0.43-1.33-0.64 c-0.46-0.22-0.96-0.34-1.47-0.34c-0.36,0-0.72,0.02-1.04,0.2c0,0.1,0.07,0.11,0.11,0.13c0.27,0.13,0.5,0.3,0.71,0.5 c0.42,0.42,0.94,0.56,1.51,0.5C60.85,49.85,61.34,49.74,61.83,49.62z"></path> <path class="st0" d="M99.22,54.54c-0.25,0.12-0.51,0.13-0.76,0.19c-0.5,0.11-1.01,0.2-1.52,0.32c-0.17,0.04-0.27,0.03-0.36-0.15 c-0.22-0.47-0.61-0.78-1.11-0.93c-1.05-0.3-2.11-0.3-3.15,0.06c-0.92,0.32-1.4,1-1.5,1.96c-0.03,0.33-0.02,0.67,0.05,1 c0.15,0.72,0.55,1.23,1.21,1.54c0.36,0.17,0.75,0.27,1.15,0.31c0.74,0.07,1.49,0.07,2.22-0.11c0.36-0.09,0.7-0.22,0.99-0.46 c0.18-0.15,0.35-0.32,0.41-0.57c-0.11-0.09-0.23-0.06-0.35-0.06c-0.74,0-1.49,0-2.23,0c-0.09,0-0.17,0-0.26-0.01 c-0.09,0-0.14-0.06-0.14-0.15c0-0.5,0-0.99,0-1.49c0-0.1,0.06-0.13,0.15-0.13c0.06,0,0.13,0,0.19,0c1.61,0,3.22,0,4.82,0 c0.06,0,0.13,0,0.19,0c0.11,0,0.15,0.06,0.16,0.16c0,0.08,0,0.15,0,0.23c0,1.36,0,2.72,0,4.08c0,0.06,0,0.13,0,0.19 c0,0.13-0.05,0.2-0.19,0.2c-0.5,0-0.99,0-1.49,0c-0.13,0-0.17-0.07-0.19-0.17c-0.03-0.2-0.06-0.4-0.09-0.61 c-0.02-0.14-0.03-0.28-0.09-0.41c-0.05-0.01-0.09,0.02-0.12,0.05c-0.57,0.63-1.3,1-2.13,1.14c-1.37,0.25-2.73,0.2-4.05-0.28 c-1.21-0.45-2.13-1.23-2.58-2.47c-0.39-1.07-0.39-2.16-0.01-3.24c0.31-0.89,0.9-1.56,1.7-2.05c0.69-0.42,1.44-0.68,2.24-0.79 c1.34-0.2,2.67-0.18,3.98,0.15c0.6,0.15,1.16,0.4,1.66,0.78C98.62,53.28,99.01,53.84,99.22,54.54z"></path> <path class="st0" d="M105.5,45.44c0.47,0.52,0.94,1.04,1.4,1.55c0.47,0.52,0.94,1.04,1.41,1.55c-0.06,0.1-0.14,0.07-0.21,0.07 c-0.86,0-1.73,0-2.59,0.01c-0.19,0-0.32-0.06-0.44-0.2c-0.75-0.85-1.51-1.69-2.26-2.54c-0.14-0.16-0.29-0.23-0.5-0.22 c-0.23,0.01-0.45,0-0.68,0c-0.32,0-0.33,0-0.33,0.32c0,0.73,0,1.47,0,2.2c0,0.08-0.01,0.15,0,0.23c0.01,0.15-0.05,0.21-0.2,0.21 c-0.71,0-1.42-0.01-2.14,0c-0.18,0-0.22-0.08-0.22-0.23c0.01-0.36,0-0.71,0-1.07c0-2.37,0-4.75,0-7.12c0-0.4-0.05-0.39,0.38-0.39 c1.83,0,3.67,0,5.5,0c0.51,0,1.01,0.04,1.5,0.2c1.15,0.38,1.84,1.32,1.86,2.53c0.03,1.46-0.73,2.43-2.15,2.78 C105.74,45.34,105.63,45.34,105.5,45.44z M102.97,41.71c-0.47,0-0.95,0-1.42,0c-0.24,0-0.25,0.01-0.25,0.23c0,0.53,0,1.05,0,1.58 c0,0.22,0.01,0.23,0.25,0.23c0.9,0,1.81,0,2.71,0c0.22,0,0.43-0.04,0.63-0.13c0.38-0.16,0.58-0.51,0.57-0.93 c-0.02-0.44-0.23-0.75-0.62-0.89c-0.22-0.08-0.44-0.09-0.67-0.09C103.77,41.71,103.37,41.71,102.97,41.71z"></path> <path class="st0" d="M127.13,60.86c-0.9,0.01-1.81-0.1-2.7-0.41c-0.69-0.24-1.32-0.6-1.84-1.12c-0.76-0.76-1.12-1.7-1.17-2.76 c-0.02-0.5,0.02-0.99,0.15-1.48c0.3-1.14,1-1.96,2.02-2.53c0.81-0.45,1.68-0.67,2.59-0.74c1.11-0.09,2.22-0.06,3.31,0.24 c0.65,0.18,1.26,0.45,1.8,0.85c0.98,0.73,1.51,1.73,1.62,2.94c0.05,0.54,0.02,1.08-0.1,1.61c-0.24,1-0.79,1.79-1.63,2.37 c-0.77,0.53-1.64,0.8-2.56,0.94C128.14,60.85,127.65,60.87,127.13,60.86z M127.21,58.88c0.35-0.01,0.72-0.03,1.1-0.1 c1.1-0.22,1.75-0.82,1.95-1.81c0.05-0.28,0.06-0.56,0.05-0.84c-0.08-1.24-0.66-1.94-1.86-2.23c-0.7-0.17-1.41-0.16-2.12-0.08 c-0.4,0.05-0.78,0.16-1.14,0.35c-0.5,0.27-0.83,0.67-1.01,1.21c-0.13,0.39-0.14,0.78-0.13,1.18c0.05,1.04,0.59,1.76,1.58,2.1 C126.13,58.84,126.65,58.88,127.21,58.88z"></path> <path class="st0" d="M123.86,42.76c0,0.11,0,0.23,0,0.34c0,1.69,0,3.39,0,5.08c0,0.08-0.01,0.15,0,0.23 c0.01,0.15-0.04,0.21-0.2,0.21c-0.65-0.01-1.3,0-1.94,0c-0.14,0-0.2-0.05-0.19-0.19c0-0.06,0-0.13,0-0.19c0-2.68,0-5.35,0-8.03 c0-0.44-0.04-0.4,0.4-0.4c0.52,0,1.04,0.03,1.55-0.01c0.39-0.03,0.65,0.1,0.91,0.4c1.56,1.76,3.15,3.5,4.73,5.24 c0.08,0.09,0.15,0.2,0.3,0.27c0.05-0.13,0.03-0.25,0.03-0.36c0-1.72,0-3.43,0-5.15c0-0.4-0.05-0.39,0.38-0.39 c0.52,0,1.04,0,1.55,0c0.42,0,0.39-0.04,0.39,0.41c0,0.32,0,0.65,0,0.97c0,2.31,0,4.62,0,6.93c0,0.1,0,0.19,0,0.29 c0.01,0.14-0.04,0.22-0.2,0.22c-0.71-0.01-1.42-0.01-2.14,0c-0.16,0-0.23-0.1-0.32-0.19c-0.66-0.73-1.32-1.45-1.98-2.18 c-0.99-1.09-1.99-2.19-2.98-3.28c-0.07-0.08-0.14-0.16-0.21-0.24C123.92,42.73,123.89,42.74,123.86,42.76z"></path> <path class="st0" d="M145.63,44.2c0-1.32,0-2.63,0-3.95c0-0.05,0-0.11,0-0.16c0-0.28,0-0.28,0.29-0.28c1.66,0,3.32,0,4.99,0 c0.93,0,1.86,0,2.78,0c0.08,0,0.15,0,0.23,0c0.13,0,0.17,0.06,0.17,0.18c0,0.51,0,1.01,0,1.52c0,0.16-0.08,0.21-0.22,0.21 c-0.09,0-0.17,0-0.26,0c-1.66,0-3.32,0-4.99,0c-0.04,0-0.09,0-0.13,0c-0.35,0-0.35,0-0.35,0.35c0,0.3,0,0.6,0,0.91 c0,0.15,0.06,0.21,0.21,0.21c0.3-0.01,0.6,0,0.91,0c1.21,0,2.42,0,3.63,0c0.06,0,0.13,0,0.19,0c0.24,0.01,0.24,0.01,0.24,0.26 c0,0.45,0,0.91,0,1.36c0,0.25-0.01,0.26-0.25,0.26c-0.49,0-0.97,0-1.46,0c-1.01,0-2.03,0-3.04,0c-0.09,0-0.17,0-0.26,0 c-0.1,0-0.17,0.04-0.17,0.15c0,0.44,0,0.88,0,1.33c0,0.11,0.06,0.15,0.16,0.16c0.1,0,0.19,0,0.29,0c1.71,0,3.41,0,5.12,0 c0.08,0,0.15,0,0.23,0c0.24,0.01,0.25,0.01,0.25,0.27c0,0.46,0,0.93,0,1.39c0,0.24-0.01,0.24-0.26,0.25c-0.04,0-0.09,0-0.13,0 c-2.59,0-5.18,0-7.77,0c-0.44,0-0.39,0.03-0.39-0.41C145.63,46.88,145.63,45.54,145.63,44.2z"></path> <path class="st0" d="M134.42,56.31c0-1.33,0-2.65,0-3.98c0-0.09,0-0.17,0-0.26c0-0.11,0.05-0.15,0.16-0.15c0.06,0,0.13,0,0.19,0 c1.89,0,3.78,0,5.67,0c0.57,0,1.12,0.07,1.65,0.29c1.23,0.51,1.82,1.46,1.9,2.76c0.02,0.37-0.02,0.73-0.12,1.09 c-0.24,0.87-0.78,1.48-1.58,1.86c-0.55,0.26-1.15,0.38-1.76,0.39c-1.04,0.01-2.07,0.01-3.11,0.01c-0.08,0-0.15,0-0.23,0 c-0.22,0.01-0.23,0.02-0.24,0.25c-0.01,0.53,0,1.06,0,1.59c0,0.13,0,0.26,0,0.39c0,0.14-0.06,0.19-0.19,0.19c-0.33,0-0.67,0-1,0 c-0.37,0-0.73,0-1.1,0c-0.23,0-0.23-0.01-0.24-0.24c0-0.79,0-1.58,0-2.36C134.42,57.52,134.42,56.92,134.42,56.31z M138.68,53.9 c-0.46,0-0.93,0-1.39,0c-0.32,0-0.33,0-0.33,0.32c0,0.6,0,1.21,0,1.81c0,0.32,0,0.33,0.32,0.33c0.88,0,1.77,0,2.65,0 c0.15,0,0.3-0.01,0.45-0.03c0.47-0.08,0.83-0.31,0.95-0.8c0.07-0.26,0.06-0.54-0.01-0.8c-0.09-0.33-0.3-0.57-0.62-0.7 c-0.22-0.09-0.46-0.12-0.7-0.12C139.56,53.9,139.12,53.9,138.68,53.9z"></path> <path class="st0" d="M138.98,39.69c0.98-0.03,1.94,0.09,2.85,0.45c1.05,0.42,1.85,1.09,2.26,2.18c0.16,0.43,0.16,0.43-0.28,0.51 c-0.65,0.12-1.29,0.25-1.94,0.38c-0.28,0.05-0.29,0.06-0.38-0.19c-0.24-0.62-0.69-1.02-1.31-1.2c-0.91-0.26-1.84-0.24-2.74,0.04 c-0.88,0.28-1.38,0.89-1.52,1.8c-0.07,0.47-0.06,0.95,0.06,1.41c0.18,0.66,0.57,1.14,1.21,1.38c1.03,0.39,2.09,0.42,3.14,0.09 c0.6-0.19,1.01-0.61,1.2-1.22c0.05-0.18,0.13-0.22,0.3-0.18c0.72,0.15,1.44,0.28,2.16,0.43c0.21,0.04,0.21,0.05,0.16,0.25 c-0.25,0.89-0.76,1.58-1.55,2.08c-0.66,0.42-1.39,0.65-2.15,0.75c-1.19,0.17-2.39,0.16-3.57-0.11c-0.65-0.15-1.26-0.39-1.81-0.77 c-1.01-0.69-1.58-1.65-1.75-2.86c-0.08-0.55-0.07-1.1,0.04-1.64c0.25-1.27,0.98-2.19,2.09-2.81c0.83-0.47,1.74-0.69,2.69-0.76 C138.42,39.67,138.7,39.69,138.98,39.69z"></path> <path class="st0" d="M120.5,48.58c-0.07,0.05-0.13,0.04-0.19,0.04c-0.76,0-1.51,0-2.27,0c-0.19,0-0.29-0.06-0.37-0.23 c-0.19-0.41-0.41-0.81-0.61-1.22c-0.07-0.15-0.16-0.2-0.33-0.2c-1.48,0.01-2.96,0-4.44,0c-0.16,0-0.25,0.05-0.32,0.2 c-0.2,0.42-0.42,0.83-0.62,1.24c-0.06,0.13-0.14,0.2-0.29,0.2c-0.78-0.01-1.55,0-2.33-0.01c-0.03,0-0.06-0.01-0.09-0.02 c-0.03-0.1,0.03-0.17,0.07-0.24c1.47-2.77,2.95-5.54,4.42-8.31c0.09-0.17,0.19-0.25,0.4-0.25c0.69,0.01,1.38,0.02,2.07,0 c0.22-0.01,0.32,0.08,0.42,0.26c1.16,2.2,2.33,4.4,3.5,6.6c0.31,0.58,0.62,1.16,0.93,1.74C120.48,48.46,120.51,48.52,120.5,48.58z M114.5,42.27c-0.03,0.05-0.07,0.09-0.09,0.13c-0.41,0.82-0.83,1.63-1.24,2.45c-0.02,0.04-0.04,0.08-0.05,0.12 c-0.02,0.06,0,0.11,0.06,0.12c0.06,0.01,0.13,0.01,0.19,0.01c0.78,0,1.55,0,2.33,0c0.08,0,0.17,0.02,0.24-0.05 C115.78,44.59,114.67,42.45,114.5,42.27z"></path> <path class="st0" d="M111.98,60.73c-0.71,0-1.41,0-2.11,0c-0.59,0-0.58,0-0.84-0.51c-0.14-0.28-0.3-0.55-0.42-0.84 c-0.09-0.22-0.23-0.3-0.47-0.29c-0.8,0.02-1.6,0.01-2.4,0.01c-0.59,0-1.19,0.01-1.78-0.01c-0.27-0.01-0.43,0.06-0.55,0.32 c-0.16,0.37-0.36,0.71-0.53,1.07c-0.08,0.18-0.19,0.25-0.39,0.25c-0.71-0.01-1.42,0-2.14-0.01c-0.07,0-0.15-0.01-0.22-0.02 c-0.02-0.13,0.06-0.22,0.11-0.31c1.45-2.73,2.91-5.46,4.36-8.2c0.12-0.23,0.25-0.3,0.5-0.29c0.67,0.02,1.34,0.01,2.01,0 c0.18,0,0.29,0.04,0.38,0.21c1.47,2.77,2.94,5.54,4.41,8.32C111.94,60.52,112.01,60.59,111.98,60.73z M106.02,54.35 c-0.05,0.07-0.08,0.1-0.1,0.14c-0.42,0.82-0.84,1.65-1.26,2.47c-0.12,0.23-0.1,0.25,0.16,0.25c0.8,0,1.59,0,2.39,0 c0.26,0,0.27-0.03,0.15-0.25c-0.41-0.82-0.83-1.63-1.24-2.44C106.1,54.47,106.07,54.42,106.02,54.35z"></path> <path class="st0" d="M88.83,44.21c0-1.33,0-2.65,0-3.98c0-0.08,0-0.15,0-0.23c-0.01-0.13,0.04-0.21,0.18-0.2c0.08,0,0.15,0,0.23,0 c2.55,0,5.09,0,7.64,0c0.05,0,0.11,0,0.16,0c0.24,0.01,0.24,0.01,0.24,0.23c0,0.52,0,1.04,0,1.55c0,0.15-0.04,0.22-0.2,0.21 c-0.11-0.01-0.22,0-0.32,0c-1.64,0-3.28,0-4.92,0c-0.09,0-0.17,0-0.26,0c-0.13-0.01-0.2,0.04-0.2,0.18c0,0.49,0,0.97,0,1.46 c0,0.14,0.06,0.2,0.19,0.19c0.09,0,0.17,0,0.26,0c1.39,0,2.78,0,4.18,0c0.06,0,0.13,0,0.19,0c0.32,0,0.32,0,0.32,0.32 c0,0.44,0,0.88,0,1.33c0,0.34,0,0.34-0.33,0.34c-1.42,0-2.85,0-4.27,0c-0.54,0-0.54,0-0.54,0.55c0,0.72,0,1.45,0,2.17 c0,0.27-0.01,0.27-0.27,0.28c-0.67,0-1.34,0-2.01,0c-0.27,0-0.28-0.01-0.28-0.3C88.83,46.95,88.83,45.58,88.83,44.21z"></path> <path class="st0" d="M113.02,56.32c0-1.32,0-2.63,0-3.95c0-0.09,0-0.17,0-0.26c0-0.13,0.05-0.2,0.19-0.19c0.72,0,1.45,0,2.17,0 c0.14,0,0.19,0.06,0.18,0.19c-0.01,0.09,0,0.17,0,0.26c0,1.96,0,3.93,0,5.89c0,0.09,0.01,0.17,0,0.26 c-0.01,0.15,0.05,0.22,0.2,0.21c0.09-0.01,0.17,0,0.26,0c1.53,0,3.06,0,4.6,0c0.08,0,0.15,0,0.23,0c0.15-0.01,0.21,0.05,0.21,0.21 c-0.01,0.53-0.01,1.06,0,1.59c0,0.16-0.07,0.21-0.21,0.2c-0.06,0-0.13,0-0.19,0c-2.41,0-4.81,0-7.22,0c-0.04,0-0.09,0-0.13,0 c-0.28-0.01-0.28-0.01-0.28-0.3C113.02,59.06,113.02,57.69,113.02,56.32z"></path> <path class="st0" d="M58.77,46.98c0.34-0.36,0.84-0.49,1.25-0.32c0.29,0.11,0.52,0.3,0.54,0.62c0.02,0.29,0.17,0.47,0.38,0.64 c0.06,0.05,0.15,0.08,0.19,0.18c-0.12,0.08-0.24,0.06-0.36,0c-0.15-0.08-0.31-0.16-0.45-0.25C59.81,47.55,59.33,47.21,58.77,46.98 z"></path> </g> </g> </svg> 