<?xml version="1.0" encoding="UTF-8"?> <svg xmlns="http://www.w3.org/2000/svg" xmlns:xlink="http://www.w3.org/1999/xlink" version="1.1" id="Calque_8" x="0px" y="0px" viewBox="0 0 200 100" style="enable-background:new 0 0 200 100;" xml:space="preserve"> <style type="text/css"> .st0{fill:#f4f4f5;} </style> <g> <g> <path class="st0" d="M93.44,30.11c0,0.1-0.01,0.21-0.01,0.31c0,5.39,0,10.78,0.01,16.17c0,0.31-0.07,0.4-0.39,0.39 c-0.92-0.02-1.84-0.02-2.75,0c-0.26,0-0.33-0.06-0.33-0.32c0.01-3.72,0.01-7.44,0.01-11.16c0-0.11,0-0.23,0-0.37 c-0.1,0.07-0.11,0.16-0.13,0.24c-1.24,3.74-2.48,7.48-3.71,11.22c-0.1,0.29-0.22,0.4-0.53,0.39c-0.76-0.03-1.53-0.02-2.29,0 c-0.23,0-0.32-0.08-0.39-0.29c-1.24-3.74-2.48-7.48-3.73-11.22c-0.04-0.11-0.04-0.24-0.17-0.34c0,0.13,0,0.24,0,0.35 c0,3.71,0,7.42,0.01,11.13c0,0.27-0.06,0.37-0.35,0.36c-0.93-0.02-1.86-0.01-2.78,0c-0.2,0-0.29-0.03-0.29-0.26 c0.01-5.53,0.01-11.07,0.01-16.6c1.63,0,3.26,0,4.89,0c0,0.04,0,0.08,0.01,0.12c1.33,4.04,2.65,8.07,3.98,12.1 c0.02,0.07,0,0.17,0.13,0.18c0.75-2.31,1.5-4.62,2.25-6.92c0.6-1.83,1.19-3.66,1.79-5.48C90.26,30.11,91.85,30.11,93.44,30.11z"></path> <path class="st0" d="M117.21,30.11c-0.33,1.33-0.66,2.66-0.98,3.98c-1.02,4.19-2.03,8.38-3.04,12.57 c-0.05,0.22-0.14,0.29-0.37,0.29c-1.12-0.01-2.25-0.01-3.37,0c-0.21,0-0.3-0.05-0.35-0.27c-0.92-3.71-1.84-7.41-2.77-11.11 c-0.03-0.12-0.03-0.26-0.15-0.4c-0.28,1.08-0.56,2.12-0.83,3.16c-0.73,2.77-1.46,5.53-2.18,8.3c-0.07,0.27-0.19,0.33-0.44,0.33 c-1.12-0.01-2.25-0.01-3.37,0c-0.2,0-0.28-0.06-0.33-0.26c-1.25-5.46-2.5-10.91-3.75-16.37c-0.02-0.07-0.01-0.14-0.02-0.21 c1.26,0,2.52,0,3.78,0c0.81,3.99,1.62,7.99,2.44,11.98c0.03,0,0.05,0,0.08,0c0.98-3.99,1.95-7.98,2.93-11.98c1.2,0,2.39,0,3.59,0 c0.02,0.05,0.04,0.1,0.05,0.14c0.73,3.07,1.45,6.15,2.18,9.22c0.21,0.88,0.42,1.77,0.65,2.72c0.04-0.13,0.07-0.19,0.08-0.25 c0.5-2.39,1-4.77,1.5-7.16c0.33-1.56,0.66-3.12,0.99-4.68C114.74,30.11,115.97,30.11,117.21,30.11z"></path> <path class="st0" d="M68.25,30.11c0.44,0.06,0.88,0.12,1.31,0.19c0.46,0.08,0.9,0.21,1.33,0.4c1.6,0.71,2.42,2,2.4,3.76 c-0.02,1.59-0.66,2.8-2.11,3.53c0.04,0.1,0.13,0.11,0.21,0.14c1.96,0.89,2.62,2.48,2.4,4.42c-0.26,2.28-1.57,3.6-3.99,4.13 c-0.97,0.21-1.96,0.29-2.95,0.29c-2.32,0.01-4.64,0-6.96,0.01c-0.27,0-0.32-0.08-0.32-0.33c0.01-5.42,0.01-10.84,0.01-16.26 c0-0.09,0.01-0.19,0.01-0.28C62.47,30.11,65.36,30.11,68.25,30.11z M65.72,39.59c-0.82,0-1.56,0.01-2.29-0.01 c-0.24,0-0.3,0.07-0.29,0.3c0.01,1.31,0.01,2.62,0,3.93c0,0.26,0.1,0.3,0.32,0.3c0.86-0.01,1.71,0,2.57-0.01 c0.7,0,1.4,0.02,2.1-0.07c1.29-0.17,1.91-0.71,2.01-1.87c0.15-1.68-0.64-2.26-1.85-2.46C67.41,39.54,66.52,39.59,65.72,39.59z M65.69,32.97c-0.85,0-1.56,0.01-2.27,0c-0.21,0-0.29,0.06-0.28,0.28c0.01,1.07,0.01,2.14,0,3.22c0,0.23,0.07,0.3,0.3,0.29 c1.17-0.01,2.33,0,3.5-0.01c0.48,0,0.97-0.02,1.44-0.15c0.5-0.14,0.9-0.39,1.13-0.88c0.55-1.22-0.07-2.41-1.38-2.64 C67.27,32.92,66.41,32.99,65.69,32.97z"></path> <path class="st0" d="M138.2,56.58c-0.05,0.25-0.09,0.5-0.15,0.75c-0.54,2.11-1.97,3.28-4.01,3.82c-0.69,0.18-1.4,0.22-2.12,0.23 c-1.16,0-2.31,0.01-3.47,0c-0.23,0-0.29,0.06-0.29,0.29c0.01,1.82,0,3.65,0.01,5.47c0,0.26-0.07,0.33-0.33,0.32 c-0.99-0.02-1.98-0.01-2.97,0c-0.23,0-0.32-0.05-0.32-0.3c0.01-5.42,0.01-10.84,0-16.27c0-0.17,0-0.29,0.23-0.29 c2.82,0.03,5.63-0.08,8.45,0.05c1.72,0.08,3.18,0.74,4.16,2.25c0.41,0.63,0.63,1.34,0.73,2.08c0.01,0.1,0.04,0.2,0.06,0.3 C138.2,55.71,138.2,56.14,138.2,56.58z M128.16,55.99c0,0.73,0.01,1.46-0.01,2.19c-0.01,0.25,0.05,0.34,0.31,0.33 c1.02-0.02,2.04-0.01,3.06-0.01c0.39,0,0.78-0.03,1.16-0.14c1.09-0.33,1.76-1.23,1.78-2.4c0.02-1.14-0.57-2-1.6-2.34 c-0.3-0.1-0.62-0.16-0.94-0.16c-1.17,0-2.35,0-3.52-0.01c-0.19,0-0.24,0.06-0.24,0.25C128.17,54.47,128.16,55.23,128.16,55.99z"></path> <path class="st0" d="M76.17,59.03c0-2.71,0-5.42,0-8.13c0-0.19,0.01-0.3,0.25-0.3c2.86,0.03,5.71-0.04,8.57,0.04 c0.87,0.02,1.72,0.23,2.5,0.63c1.39,0.72,2.13,1.9,2.35,3.42c0.16,1.12,0.11,2.22-0.38,3.27c-0.47,0.99-1.24,1.68-2.21,2.17 c-0.24,0.12-0.28,0.2-0.16,0.45c1.11,2.18,2.21,4.37,3.31,6.56c0.16,0.31,0.16,0.32-0.2,0.32c-1.14,0-2.29-0.01-3.43,0.01 c-0.22,0-0.32-0.06-0.42-0.26c-0.93-2.02-1.88-4.03-2.81-6.05c-0.09-0.2-0.2-0.27-0.41-0.27c-1.01,0.01-2.02,0.01-3.03,0 c-0.25,0-0.31,0.08-0.31,0.32c0.01,1.97,0,3.94,0.01,5.91c0,0.28-0.07,0.37-0.36,0.36c-0.99-0.02-1.98-0.02-2.97,0 c-0.27,0-0.32-0.08-0.32-0.33C76.17,64.43,76.17,61.73,76.17,59.03z M79.8,55.73c0,0.69,0,1.38,0,2.07c0,0.15,0.01,0.26,0.21,0.25 c1.33-0.03,2.66,0.06,3.99-0.05c1.3-0.11,2.06-0.78,2.17-1.99c0.14-1.55-0.53-2.2-1.72-2.45c-0.22-0.05-0.45-0.08-0.67-0.08 c-1.24-0.01-2.47-0.01-3.71-0.02c-0.23,0-0.27,0.09-0.27,0.29C79.81,54.41,79.8,55.07,79.8,55.73z"></path> <path class="st0" d="M107.23,59.05c-0.02,1.61-0.23,3.19-0.95,4.65c-1.13,2.27-2.97,3.59-5.45,4.01 c-1.52,0.25-3.05,0.23-4.53-0.21c-2.41-0.71-4.09-2.25-4.88-4.63c-0.9-2.72-0.89-5.47,0.19-8.13c1.04-2.55,3.03-3.96,5.73-4.39 c1.62-0.26,3.24-0.21,4.8,0.33c2.57,0.89,4.07,2.77,4.75,5.35C107.13,57.01,107.21,58.02,107.23,59.05z M94.5,59.04 c0.01,0.89,0.1,1.77,0.37,2.62c0.74,2.36,2.66,3.53,5.06,3.08c1.58-0.3,2.57-1.33,3.09-2.78c0.71-1.94,0.69-3.93,0-5.87 c-0.39-1.1-1.09-1.98-2.18-2.49c-2.3-1.06-4.8-0.07-5.78,2.3C94.64,56.9,94.52,57.96,94.5,59.04z"></path> <path class="st0" d="M71.68,65.79c-0.06,0.05-0.1,0.07-0.12,0.09c-1.11,1.28-2.57,1.83-4.21,1.94c-1.19,0.08-2.37,0.01-3.51-0.39 c-2.06-0.72-3.49-2.12-4.2-4.16c-0.98-2.82-0.99-5.68,0.12-8.46c1.03-2.59,3.03-4.07,5.79-4.49c1.36-0.21,2.72-0.17,4.06,0.15 c2.27,0.53,3.68,2,4.46,4.14c0.08,0.21,0.13,0.43,0.22,0.64c0.07,0.16,0,0.22-0.14,0.25c-1.01,0.24-2.02,0.48-3.03,0.74 c-0.21,0.05-0.22-0.07-0.26-0.2c-0.26-0.74-0.63-1.41-1.23-1.94c-1.78-1.55-4.77-1.07-6.01,0.98c-0.58,0.96-0.81,2.02-0.89,3.12 c-0.1,1.3-0.06,2.6,0.39,3.85c0.66,1.86,2.1,2.84,4.07,2.78c0.76-0.02,1.5-0.15,2.17-0.52c1.14-0.62,1.67-1.69,1.5-2.97 c-0.03-0.2-0.15-0.16-0.27-0.16c-0.72,0-1.44-0.01-2.17,0c-0.24,0.01-0.29-0.07-0.29-0.3c0.01-0.69,0.01-1.38,0-2.07 c0-0.19,0.03-0.27,0.25-0.27c1.92,0.01,3.84,0.01,5.76,0c0.21,0,0.26,0.07,0.25,0.26c-0.01,2.79-0.01,5.59,0,8.38 c0,0.22-0.06,0.28-0.28,0.28c-0.6-0.01-1.2-0.01-1.79,0c-0.21,0.01-0.28-0.07-0.32-0.27C71.9,66.73,71.79,66.28,71.68,65.79z"></path> <path class="st0" d="M108.56,56.39c0-1.82,0-3.65,0-5.47c0-0.24,0.05-0.32,0.31-0.32c1.01,0.01,2.02,0.02,3.03,0 c0.27,0,0.32,0.09,0.32,0.33c-0.01,3.35,0,6.7-0.01,10.05c0,0.56,0.04,1.11,0.19,1.65c0.33,1.18,1.09,1.88,2.29,2.11 c0.63,0.12,1.27,0.12,1.91,0.01c1.35-0.24,2.17-1.07,2.41-2.43c0.08-0.47,0.12-0.94,0.12-1.41c0-3.31,0-6.62-0.01-9.92 c0-0.32,0.09-0.39,0.4-0.38c0.99,0.02,1.98,0.01,2.97,0c0.18,0,0.29,0.01,0.28,0.24c-0.03,3.62,0.07,7.23-0.05,10.85 c-0.06,1.84-0.71,3.46-2.16,4.68c-0.93,0.78-2.02,1.18-3.21,1.34c-1.4,0.2-2.8,0.2-4.18-0.16c-2.5-0.65-3.93-2.31-4.44-4.82 c-0.13-0.66-0.17-1.33-0.17-2C108.56,59.3,108.56,57.84,108.56,56.39z"></path> </g> </g> </svg> 