<?xml version="1.0" encoding="UTF-8"?> <svg xmlns="http://www.w3.org/2000/svg" xmlns:xlink="http://www.w3.org/1999/xlink" version="1.1" id="Calque_1" x="0px" y="0px" viewBox="0 0 200 100" style="enable-background:new 0 0 200 100;" xml:space="preserve"> <style type="text/css"> .st0{fill:#f4f4f5;} </style> <g id="Calque_6"> <g id="Calque_2_00000065035257105749325530000012232950267410105260_"> <g id="Calque_1-2"> <path class="st0" d="M36.7,33.8c0.55,0.54,1.09,1.06,1.63,1.6c1.61,1.62,3.26,3.21,4.83,4.87c1.5,1.59,2.77,3.36,3.66,5.37 c0.54,1.22,0.89,2.48,0.88,3.83c-0.02,2.24-1.49,4.21-3.63,4.87c-2.1,0.66-4.41-0.11-5.71-1.92c-0.08-0.13-0.17-0.25-0.26-0.37 c-0.15-0.17-0.39-0.22-0.59-0.12c-0.22,0.09-0.28,0.27-0.24,0.5c0.26,1.71,0.82,3.3,1.92,4.66c0.63,0.77,1.4,1.34,2.3,1.78h-9.62 c0.01-0.02,0.02-0.05,0.05-0.06c1.85-0.82,2.96-2.29,3.62-4.13c0.24-0.68,0.38-1.4,0.56-2.1c0.07-0.26,0.09-0.53-0.23-0.66 c-0.27-0.11-0.5-0.02-0.71,0.29c-0.88,1.31-2.11,2.09-3.68,2.31c-2.77,0.4-5.48-1.71-5.77-4.49c-0.15-1.49,0.2-2.88,0.77-4.23 c0.93-2.17,2.29-4.06,3.92-5.74c2.01-2.08,4.09-4.09,6.14-6.14C36.58,33.89,36.64,33.84,36.7,33.8z M42.55,43.48l-0.03-0.07 c-0.11-0.01-0.23-0.02-0.34-0.02c-1.26,0-2.52-0.01-3.78,0c-0.23,0-0.34-0.07-0.41-0.29c-0.36-1.15-0.73-2.29-1.11-3.43 c-0.06-0.17-0.12-0.34-0.21-0.59c-0.07,0.2-0.11,0.29-0.14,0.39c-0.38,1.16-0.77,2.32-1.13,3.49c-0.1,0.32-0.22,0.44-0.58,0.43 c-1.22-0.03-2.45-0.01-3.67-0.01c-0.11,0-0.22,0.01-0.42,0.02c0.16,0.12,0.24,0.19,0.32,0.25c1.02,0.74,2.03,1.48,3.05,2.21 c0.21,0.15,0.27,0.28,0.18,0.53c-0.33,0.96-0.64,1.93-0.95,2.9c-0.11,0.33-0.21,0.67-0.32,1c0.12-0.02,0.23-0.07,0.33-0.14 c1.03-0.74,2.06-1.48,3.07-2.24c0.19-0.14,0.31-0.15,0.5-0.01c1.02,0.76,2.05,1.5,3.07,2.24c0.09,0.07,0.19,0.12,0.35,0.24 c-0.06-0.2-0.08-0.31-0.12-0.42c-0.39-1.2-0.78-2.41-1.18-3.61c-0.07-0.21-0.03-0.33,0.15-0.46c1.03-0.74,2.05-1.49,3.08-2.23 C42.37,43.62,42.46,43.55,42.55,43.48z"></path> <path class="st0" d="M153.25,40.67c0.06-0.01,0.12-0.02,0.18-0.03c2.3,0.01,4.6-0.01,6.89,0.03c1.08,0.02,2.05,0.39,2.74,1.27 c1.52,1.95,0.56,5.04-1.8,5.77c-0.07,0.02-0.14,0.05-0.26,0.09l1.68,2.13l1.69,2.14h-1.18c-0.64,0-1.28,0.01-1.92-0.01 c-0.16-0.01-0.31-0.09-0.42-0.21c-0.92-1.21-1.83-2.42-2.73-3.64c-0.11-0.17-0.31-0.27-0.51-0.25c-0.53,0.02-1.06,0-1.62,0v4.07 h-2.74L153.25,40.67z M156.02,45.71c1.22,0,2.4,0,3.59,0c0.03,0,0.06-0.01,0.1-0.02c0.79-0.18,1.17-0.64,1.16-1.41 c-0.01-0.78-0.42-1.27-1.21-1.41c-0.2-0.03-0.41-0.05-0.61-0.05c-0.89-0.01-1.77,0-2.66,0h-0.36L156.02,45.71L156.02,45.71z"></path> <path class="st0" d="M106.07,40.66c0.07-0.01,0.14-0.02,0.21-0.02c2.24,0,4.49,0,6.73,0.02c0.29,0.01,0.58,0.04,0.87,0.1 c2.49,0.53,3,2.73,2.55,4.52c-0.31,1.23-1.09,2.04-2.31,2.42c-0.08,0.03-0.16,0.05-0.3,0.1l3.35,4.24 c-0.14,0.01-0.23,0.03-0.32,0.03c-0.92,0-1.84,0.01-2.76-0.01c-0.16-0.01-0.31-0.09-0.42-0.22c-0.92-1.21-1.83-2.42-2.73-3.64 c-0.13-0.17-0.26-0.25-0.48-0.25c-0.53,0.02-1.06,0.01-1.63,0.01v4.07h-2.76V40.66z M108.83,42.82v2.9 c0.07,0.01,0.14,0.02,0.21,0.02c0.95,0,1.9,0.01,2.86-0.01c0.32-0.01,0.64-0.07,0.95-0.17c0.51-0.17,0.78-0.56,0.82-1.1 c0.08-0.98-0.43-1.59-1.49-1.64C111.08,42.78,109.97,42.82,108.83,42.82z"></path> <path class="st0" d="M80.22,46.38c0.02,2.6-1.26,4.54-3.55,5.38c-1.11,0.41-2.25,0.53-3.42,0.44c-0.9-0.07-1.78-0.27-2.6-0.67 c-1.62-0.8-2.6-2.08-2.93-3.85c-0.2-1.01-0.17-2.06,0.1-3.06c0.46-1.74,1.54-2.97,3.21-3.62c1.82-0.72,3.69-0.75,5.53-0.09 c2.27,0.81,3.44,2.49,3.65,4.86C80.24,45.96,80.22,46.17,80.22,46.38z M70.54,46.37c0.02,0.2,0.02,0.43,0.05,0.66 c0.19,1.32,0.82,2.32,2.14,2.72c1.36,0.41,2.66,0.26,3.69-0.82c1.14-1.19,1.2-3.7,0.1-5.01c-0.98-1.17-2.28-1.33-3.67-0.97 c-1.28,0.33-2.1,1.37-2.26,2.76C70.57,45.91,70.56,46.13,70.54,46.37z"></path> <path class="st0" d="M138.56,52.06c0.35-0.86,0.68-1.66,1-2.46c1.18-2.86,2.35-5.73,3.52-8.6c0.11-0.27,0.23-0.38,0.54-0.37 c1.07,0.02,2.15,0.01,3.22,0c0.22,0,0.33,0.06,0.41,0.27c1.48,3.64,2.97,7.28,4.47,10.91c0.03,0.07,0.04,0.14,0.08,0.26h-1.09 c-0.54,0-1.08-0.01-1.63,0c-0.2,0-0.29-0.06-0.36-0.24c-0.23-0.63-0.48-1.25-0.72-1.88c-0.07-0.2-0.18-0.26-0.38-0.25 c-1.63,0.01-3.25,0.01-4.88,0c-0.23,0-0.33,0.08-0.4,0.28c-0.23,0.62-0.46,1.24-0.72,1.85c-0.04,0.1-0.17,0.22-0.25,0.22 C140.47,52.06,139.55,52.06,138.56,52.06z M145.19,42.68c-0.63,1.63-1.23,3.17-1.84,4.74h3.68 C146.42,45.85,145.82,44.31,145.19,42.68L145.19,42.68z"></path> <path class="st0" d="M82,40.64h2.58c0.23,0,0.18,0.18,0.18,0.31c0,1.53,0,3.05,0,4.58V46c0.2-0.22,0.33-0.35,0.46-0.5 c1.38-1.54,2.76-3.09,4.13-4.63c0.13-0.16,0.32-0.25,0.53-0.24c0.92,0.01,1.84,0,2.76,0.01c0.09,0,0.19,0.01,0.36,0.02l-4.5,4.81 l4.98,6.56c-0.13,0.01-0.22,0.03-0.31,0.03c-0.93,0-1.86-0.01-2.8,0.01c-0.19,0.01-0.38-0.08-0.48-0.24 c-1.01-1.38-2.03-2.76-3.05-4.13c-0.07-0.09-0.13-0.17-0.3-0.39c-0.05,0.12-0.07,0.23-0.13,0.3c-0.48,0.56-0.98,1.1-1.45,1.67 c-0.11,0.15-0.18,0.33-0.19,0.52c-0.02,0.74-0.01,1.49-0.01,2.25H82V40.64z"></path> <path class="st0" d="M104,49.71v2.32h-9.03V40.66h9.02v2.27h-6.25v2.2h5.6v2.18h-5.6v2.4C97.74,49.71,104,49.71,104,49.71z"></path> <path class="st0" d="M165.8,49.44c1.28,0.13,2.51,0.29,3.74,0.36c0.66,0.04,1.34-0.04,2-0.13c0.28-0.05,0.54-0.17,0.76-0.34 c0.57-0.44,0.49-1.28-0.17-1.57c-0.36-0.15-0.74-0.24-1.13-0.27c-0.91-0.09-1.81-0.14-2.72-0.2c-0.07-0.01-0.13-0.02-0.2-0.03 c-1.56-0.31-2.48-1.17-2.64-2.48c-0.2-1.7,0.5-3.03,1.98-3.73c0.92-0.43,1.9-0.57,2.91-0.59c1.31-0.02,2.62,0.09,3.92,0.32 c0.3,0.05,0.44,0.15,0.42,0.49c-0.03,0.65-0.01,1.3-0.01,1.96c-0.7-0.11-1.37-0.25-2.04-0.33c-1.12-0.13-2.24-0.27-3.37-0.04 c-0.25,0.05-0.5,0.15-0.72,0.28c-0.32,0.17-0.49,0.52-0.44,0.87c0.04,0.39,0.26,0.65,0.63,0.74c0.4,0.09,0.81,0.15,1.22,0.18 c0.96,0.09,1.93,0.1,2.88,0.27c1.52,0.28,2.37,1.2,2.57,2.59c0.23,1.58-0.37,2.9-1.65,3.63c-1.03,0.59-2.16,0.75-3.32,0.78 c-1.46,0.03-2.9-0.1-4.34-0.34c-0.21-0.04-0.29-0.11-0.29-0.33C165.81,50.83,165.8,50.12,165.8,49.44z"></path> <path class="st0" d="M127.39,43.18c-1.26-0.14-2.47-0.3-3.69-0.39c-0.54-0.04-1.1,0.03-1.65,0.09c-0.25,0.03-0.5,0.15-0.72,0.28 c-0.31,0.16-0.48,0.5-0.43,0.85c0.04,0.39,0.25,0.66,0.62,0.75c0.41,0.09,0.83,0.15,1.25,0.19c0.95,0.09,1.91,0.1,2.84,0.27 c1.43,0.26,2.27,1.13,2.49,2.4c0.28,1.64-0.26,3.01-1.5,3.77c-1.04,0.64-2.21,0.81-3.4,0.83c-1.44,0.03-2.88-0.11-4.3-0.35 c-0.21-0.04-0.29-0.11-0.28-0.33c0.01-0.71,0.01-1.42,0.01-2.14c0.8,0.11,1.57,0.27,2.34,0.32c1,0.07,2.01,0.07,3.02,0.04 c0.34-0.01,0.69-0.16,1.01-0.32c0.36-0.18,0.51-0.52,0.5-0.92c-0.02-0.4-0.26-0.67-0.62-0.79c-0.35-0.12-0.71-0.19-1.07-0.23 c-0.89-0.08-1.79-0.13-2.69-0.2c-0.1-0.01-0.19-0.03-0.29-0.05c-1.28-0.28-2.25-0.92-2.51-2.3c-0.29-1.49,0.27-2.85,1.47-3.62 c0.91-0.59,1.94-0.79,3-0.84c1.43-0.07,2.86,0.07,4.27,0.32c0.28,0.05,0.36,0.17,0.35,0.45 C127.38,41.9,127.39,42.56,127.39,43.18z"></path> <path class="st0" d="M58.74,48.27v3.77H56V40.67c0.06-0.02,0.12-0.03,0.19-0.03c2.21,0,4.43-0.02,6.63,0.03 c0.57,0.02,1.14,0.14,1.67,0.36c1.29,0.53,1.97,1.78,1.92,3.35c-0.07,2.35-1.53,3.76-4.05,3.86c-1.07,0.04-2.15,0.01-3.22,0.02 C59.02,48.27,58.9,48.27,58.74,48.27z M58.77,45.94c1.1,0,2.19,0.05,3.26-0.01c1.13-0.06,1.7-0.91,1.44-2.03 c-0.16-0.69-0.7-1.07-1.58-1.08c-0.99-0.01-1.97,0-2.96,0c-0.06,0-0.13,0.01-0.19,0.03c0,0.94,0,1.87,0,2.8 C58.75,45.73,58.76,45.83,58.77,45.94L58.77,45.94z"></path> <path class="st0" d="M95.16,64.06c-0.91,0-1.72,0.01-2.53-0.01c-0.11,0-0.25-0.11-0.33-0.21c-0.71-0.93-1.41-1.87-2.1-2.81 c-0.14-0.19-0.28-0.26-0.51-0.25c-0.39,0.02-0.78,0-1.22,0v3.26h-2.21V54.9h0.36c1.62,0,3.23-0.02,4.85,0.01 c0.53,0,1.05,0.09,1.56,0.26c1.17,0.42,1.78,1.55,1.63,2.91c-0.14,1.26-0.77,2.13-2.03,2.5c-0.05,0.02-0.1,0.04-0.15,0.07 L95.16,64.06z M88.48,56.71v2.31c0.74,0,1.47,0.01,2.19,0c0.25,0,0.5-0.02,0.74-0.06c0.64-0.13,0.94-0.5,0.93-1.13 c-0.01-0.62-0.33-1.06-0.96-1.1C90.42,56.66,89.46,56.71,88.48,56.71L88.48,56.71z"></path> <path class="st0" d="M74.65,59.51c0-2.61,1.65-4.45,4.26-4.67c0.73-0.07,1.47-0.04,2.19,0.1c2.36,0.46,3.72,2.23,3.67,4.65 c-0.05,2.69-1.83,4.48-4.63,4.59c-0.72,0.03-1.45-0.04-2.15-0.21C75.87,63.44,74.65,61.77,74.65,59.51z M76.98,59.48l0.04,0.01 c0.01,0.16,0.01,0.33,0.03,0.49c0.15,1.41,1.12,2.32,2.55,2.38s2.5-0.73,2.74-2.1c0.08-0.46,0.08-0.93,0.02-1.39 c-0.15-1.25-1.04-2.1-2.23-2.22c-1.43-0.14-2.52,0.47-2.92,1.69C77.08,58.71,77.05,59.1,76.98,59.48L76.98,59.48z"></path> <path class="st0" d="M129.03,40.66h10.33v2.37h-3.78v9.01h-2.75v-9h-3.8V40.66z"></path> <path class="st0" d="M63.29,55.13v1.86c-0.7-0.1-1.38-0.25-2.07-0.29c-0.73-0.04-1.47-0.03-2.2,0.02 c-0.22,0.01-0.46,0.14-0.64,0.28c-0.3,0.21-0.38,0.63-0.16,0.94c0.07,0.11,0.18,0.19,0.3,0.24c0.25,0.11,0.54,0.14,0.82,0.17 c0.79,0.07,1.58,0.08,2.36,0.2c1.27,0.2,2.02,0.92,2.19,2.03c0.21,1.4-0.3,2.5-1.45,3.09c-0.69,0.36-1.46,0.53-2.23,0.51 c-1.22-0.04-2.44-0.16-3.66-0.26c-0.09-0.01-0.24-0.13-0.25-0.21c-0.02-0.58-0.01-1.17-0.01-1.79c0.34,0.06,0.66,0.14,0.98,0.16 c1.06,0.07,2.12,0.14,3.18,0.16c0.29,0.01,0.6-0.11,0.87-0.23c0.33-0.14,0.48-0.42,0.47-0.78c0-0.32-0.23-0.59-0.54-0.65 c-0.49-0.11-1-0.15-1.51-0.21c-0.6-0.07-1.21-0.08-1.81-0.2c-0.95-0.19-1.66-0.72-1.87-1.72c-0.22-1.08,0.01-2.05,0.89-2.79 c0.55-0.46,1.21-0.67,1.9-0.79C59.94,54.69,62.26,54.81,63.29,55.13z"></path> <path class="st0" d="M112.34,55.11v1.88c-0.7-0.1-1.38-0.24-2.07-0.3c-0.61-0.05-1.23-0.06-1.85-0.03 c-0.31,0.02-0.63,0.15-0.92,0.28c-0.26,0.12-0.38,0.38-0.34,0.68s0.2,0.53,0.49,0.58c0.5,0.09,1.01,0.13,1.51,0.19 c0.6,0.07,1.21,0.07,1.81,0.19c1.06,0.21,1.78,0.84,1.95,1.95c0.17,1.17-0.05,2.21-1.1,2.92c-0.77,0.53-1.66,0.73-2.56,0.71 c-1.23-0.03-2.46-0.16-3.69-0.25c-0.07-0.01-0.15-0.04-0.22-0.07v-1.92c0.68,0.09,1.34,0.22,2.01,0.27 c0.71,0.05,1.43,0.05,2.14,0.03c0.27-0.01,0.56-0.1,0.81-0.2c0.33-0.12,0.54-0.44,0.51-0.79c-0.01-0.38-0.26-0.61-0.59-0.68 c-0.45-0.1-0.92-0.14-1.38-0.19c-0.61-0.07-1.24-0.07-1.84-0.19c-1-0.2-1.75-0.74-1.93-1.81c-0.2-1.17,0.1-2.18,1.13-2.87 c0.74-0.51,1.59-0.67,2.47-0.71C109.91,54.74,111.14,54.85,112.34,55.11z"></path> <path class="st0" d="M67.44,61.02v3.02h-2.21v-9.11c0.1-0.01,0.18-0.02,0.26-0.02c1.65,0,3.3,0,4.94,0 c0.28,0,0.56,0.03,0.84,0.08c1.55,0.29,2.41,1.47,2.28,3.12c-0.13,1.72-1.25,2.8-3.05,2.89c-0.88,0.04-1.76,0.02-2.63,0.02H67.44 z M67.45,59.19c0.65,0,1.27,0.01,1.88,0c0.32,0,0.65-0.02,0.97-0.07c0.44-0.08,0.77-0.33,0.89-0.79 c0.26-0.94-0.24-1.64-1.21-1.66c-0.79-0.01-1.58,0-2.37,0c-0.05,0.01-0.11,0.01-0.16,0.03C67.45,56.7,67.45,59.19,67.45,59.19z"></path> <path class="st0" d="M98.76,64.04v-7.2h-3.02v-1.9H104v1.88h-2.99v7.22H98.76z"></path> </g> </g> </g> </svg> 